<?xml version="1.0" encoding="utf-8"?>
<svg version="1.1" xmlns:xlink="http://www.w3.org/1999/xlink" width="14px" height="24px" xmlns="http://www.w3.org/2000/svg">
  <g transform="matrix(1 0 0 1 -1876 -974 )">
    <path d="M 0.240549828178695 1.44288577154308  C 0.0801832760595629 1.60320641282565  0 1.7875751503006  0 1.99599198396794  C 0 2.20440881763527  0.0801832760595629 2.38877755511022  0.240549828178695 2.54909819639279  L 9.69415807560137 12  L 0.240549828178695 21.4509018036072  C 0.0801832760595629 21.6112224448898  0 21.7955911823647  0 22.0040080160321  C 0 22.2124248496994  0.0801832760595629 22.3967935871743  0.240549828178695 22.5571142284569  L 1.44329896907216 23.7595190380762  C 1.60366552119129 23.9198396793587  1.78808705612829 24  1.99656357388316 24  C 2.20504009163803 24  2.38946162657503 23.9198396793587  2.54982817869416 23.7595190380762  L 13.7594501718213 12.5531062124248  C 13.9198167239404 12.3927855711423  14 12.2084168336673  14 12  C 14 11.7915831663327  13.9198167239404 11.6072144288577  13.7594501718213 11.4468937875752  L 2.54982817869416 0.240480961923848  C 2.38946162657503 0.0801603206412818  2.20504009163803 0  1.99656357388316 0  C 1.78808705612829 0  1.60366552119129 0.0801603206412818  1.44329896907216 0.240480961923848  L 0.240549828178695 1.44288577154308  Z " fill-rule="nonzero" fill="#92edf6" stroke="none" transform="matrix(1 0 0 1 1876 974 )" />
  </g>
</svg>