<?xml version="1.0" encoding="utf-8"?>
<svg version="1.1" xmlns:xlink="http://www.w3.org/1999/xlink" width="52px" height="187px" xmlns="http://www.w3.org/2000/svg">
  <defs>
    <linearGradient gradientUnits="userSpaceOnUse" x1="44.53116531165" y1="8.77594617325599" x2="12.9647696476965" y2="163.534566862913" id="LinearGradient880">
      <stop id="Stop881" stop-color="#16454c" offset="0" />
      <stop id="Stop882" stop-color="#041537" offset="1" />
    </linearGradient>
    <mask fill="white" id="clip883">
      <path d="M 0.559594863446602 21.4471649484536  L 8.83595586905613 13  L 18.9933080123001 13  L 43.069994574064 0.963917525775393  L 51.7225538071991 0.963917525775393  L 52 160.813573883161  L 15.6075239645499 186.116408934708  L 0.559594863446602 186.116408934708  L 0.559594863446602 139.125429553265  L 5 132.297680412373  L 5 61.2087628866001  L 0 53.9793814433004  L 0.559594863446602 21.4471649484536  Z " fill-rule="evenodd" />
    </mask>
  </defs>
  <g transform="matrix(1 0 0 1 -9 -531 )">
    <path d="M 0.559594863446602 21.4471649484536  L 8.83595586905613 13  L 18.9933080123001 13  L 43.069994574064 0.963917525775393  L 51.7225538071991 0.963917525775393  L 52 160.813573883161  L 15.6075239645499 186.116408934708  L 0.559594863446602 186.116408934708  L 0.559594863446602 139.125429553265  L 5 132.297680412373  L 5 61.2087628866001  L 0 53.9793814433004  L 0.559594863446602 21.4471649484536  Z " fill-rule="nonzero" fill="url(#LinearGradient880)" stroke="none" transform="matrix(1 0 0 1 9 531 )" />
    <path d="M 0.559594863446602 21.4471649484536  L 8.83595586905613 13  L 18.9933080123001 13  L 43.069994574064 0.963917525775393  L 51.7225538071991 0.963917525775393  L 52 160.813573883161  L 15.6075239645499 186.116408934708  L 0.559594863446602 186.116408934708  L 0.559594863446602 139.125429553265  L 5 132.297680412373  L 5 61.2087628866001  L 0 53.9793814433004  L 0.559594863446602 21.4471649484536  Z " stroke-width="2" stroke="#027db4" fill="none" transform="matrix(1 0 0 1 9 531 )" mask="url(#clip883)" />
  </g>
</svg>