<?xml version="1.0" encoding="utf-8"?>
<svg version="1.1" xmlns:xlink="http://www.w3.org/1999/xlink" width="20px" height="23px" xmlns="http://www.w3.org/2000/svg">
  <defs>
    <linearGradient gradientUnits="userSpaceOnUse" x1="10" y1="15.1839826839842" x2="10" y2="34.3008658008644" id="LinearGradient900">
      <stop id="Stop901" stop-color="#67e1fb" offset="0" />
      <stop id="Stop902" stop-color="#000000" offset="1" />
    </linearGradient>
  </defs>
  <g transform="matrix(1 0 0 1 -27 -368 )">
    <path d="M 7.31305659722222 9.45825217578125  C 7.31305659722222 10.876595441491  8.51572085784026 12.0263898369141  9.99928240740741 12.0263898369141  C 11.4828439569746 12.0263898369141  12.6855082175926 10.876595441491  12.6855082175926 9.45825217578125  C 12.6855082175926 8.03990891007147  11.4828439569746 6.89011451464844  9.99928240740741 6.89011451464844  C 8.51572085784026 6.89011451464844  7.31305659722222 8.03990891007147  7.31305659722222 9.45825217578125  Z M 10.0636810947546 1.95404890657428E-05  C 10.042214692243 1.95404890657428E-05  10.0207483475307 8.78971524779909E-05  9.99928240740741 0.000224609375  C 9.97780875187731 8.77988556467692E-05  9.95633469132085 1.93930430198413E-05  9.93486057290365 1.93930430198413E-05  C 4.54104085866441 1.93930430198413E-05  0.15864968699567 4.2246504515119  0.123452939814815 9.45822971484375  C 0.142875559921031 13.6775671723562  3.03610364839933 17.3757386873348  7.21923719907407 18.5281773378906  L 7.0957881712963 16.7937444179688  C 3.92740423511163 15.6580925387155  1.81647684799385 12.7355490463959  1.79741060185185 9.45822971484375  C 1.79741060185185 5.06294470780869  5.46950850724245 1.49986220898438  9.99927083333333 1.49986220898438  C 14.5290331594242 1.49986220898438  18.2011310648148 5.06294470780869  18.2011310648148 9.45822971484375  C 18.1820648186728 12.7355490463959  16.071137431555 15.6580925387155  12.9027534953704 16.7937444179688  L 12.7793044675926 18.5281773378906  C 16.9624380182673 17.3757386873348  19.8556661067456 13.6775671723562  19.8750887268519 9.45822971484375  C 19.839891896521 4.22465050954451  15.4575007497295 1.95404890657428E-05  10.0636810947546 1.95404890657428E-05  Z M 9.99928240740741 3.32057877539062  C 9.96314801197972 3.31997587656214  9.92700894256681 3.31967441043824  9.8908692053992 3.31967441043824  C 6.4083188974137 3.31967441043824  3.58515406651031 6.05902653542419  3.58515406651031 9.43818863114137  C 3.58515406651031 11.7673565650154  4.94804512859837 13.8945119949219  7.1006955787037 14.9251299023438  C 7.18747974192268 14.3903868742998  7.38212923469511 13.8775084806317  7.67349627314815 13.4158678134766  C 6.23322527069371 12.5999210089935  5.34772762538218 11.1033297168777  5.34772762538218 9.4850554345256  C 5.34772762538218 6.97119214710281  7.44796733621054 4.93330330268967  10.038744315197 4.93330330268967  C 12.6245206572109 4.93330330268967  14.7226832141386 6.96362539918855  14.7297435185185 9.47262715332031  C 14.7243535705444 11.1129016547463  13.804172260021 12.6217922986909  12.3249990972222 13.4158678134766  C 12.6181923146866 13.8818557206559  12.8129056882852 14.3997889574532  12.8977997916667 14.9395049023437  C 15.0677018190264 13.9151521992994  16.4448421228486 11.7790310916125  16.4448421228486 9.43758765217906  C 16.4448421228486 6.05842555646189  13.6216772919452 3.31907343147594  10.1391269839597 3.31907343147594  C 10.0925001071448 3.31907343147594  10.045874664419 3.31957524364617  9.99925925925926 3.32057877539062  Z M 11.6287725231481 22.1839854707031  C 11.5373491058206 22.6764965610035  11.0821112572798 23.0257681244797  10.5671293981482 22.99850859375  L 9.43141226851852 22.99850859375  C 8.91643041797457 23.0257681127689  8.46119258298864 22.6764965520767  8.36976916666667 22.1839854707031  L 7.65870462962963 16.2571303623047  C 7.46611210648148 14.4891408242187  8.51789412037037 12.8313446005859  9.99928240740741 12.8313446005859  C 11.4806706944444 12.8313446005859  12.532406412037 14.4891408242187  12.339813912037 16.2571303623047  L 11.6287725231481 22.1839854707031  Z " fill-rule="nonzero" fill="url(#LinearGradient900)" stroke="none" transform="matrix(1 0 0 1 27 368 )" />
  </g>
</svg>