<?xml version="1.0" encoding="utf-8"?>
<svg version="1.1" xmlns:xlink="http://www.w3.org/1999/xlink" width="20px" height="20px" xmlns="http://www.w3.org/2000/svg">
  <defs>
    <linearGradient gradientUnits="userSpaceOnUse" x1="10" y1="13.2034632034645" x2="10" y2="29.8268398268386" id="LinearGradient890">
      <stop id="Stop891" stop-color="#fff000" offset="0" />
      <stop id="Stop892" stop-color="#000000" offset="1" />
    </linearGradient>
  </defs>
  <g transform="matrix(1 0 0 1 -26 -186 )">
    <path d="M 19.837426875 2.66539167582418  C 19.8373938315217 2.36983480769231  19.6003454076087 2.13018145604396  19.3081333152174 2.13018145604396  L 2.95483298913044 2.13018145604396  C 2.66248869565217 2.13018145604396  2.42544027173913 2.36983480769231  2.42544027173913 2.66539167582418  C 2.42544027173913 2.9608482967033  2.66248869565217 3.20050164835165  2.95483298913044 3.20050164835165  L 19.3081333152174 3.20050164835165  C 19.600378451087 3.20050164835165  19.837426875 2.9608817032967  19.837426875 2.66539167582418  Z M 2.83766391304348 4.33948994505494  C 1.94608817934783 4.33948994505494  1.22079668478261 3.60609456043956  1.22079668478261 2.70482153846154  C 1.22079668478261 1.80341486263736  1.94605513586957 1.07018653846154  2.83766391304348 1  L 19.3081002445652 1  C 19.6003453804348 1.07018653846154  19.8373938043478 0.830633434065934  19.8373938043478 0.535076565934066  C 19.8373938043478 0.239519697802198  19.6003453804348 0  19.3081333152174 0  L 2.83766391304348 0  C 1.36239114130435 0  0.162242608695652 1.21330354395604  0.162242608695652 2.70482153846154  L 0.162242608695652 17.1736084615385  C 0.162242608695652 18.6649259340659  1.36239114130435 19.8783297527473  2.83766391304348 19.8783297527473  L 19.8372946467391 19.8783297527473  L 19.8372946467391 4.33948994505494  L 2.83766391304348 4.33948994505494  Z M 5.27259937500001 11.6910870054945  C 5.02424720108696 11.4463545604396  4.93421375000001 11.1428782967033  5.02573453804348 10.8583818406593  C 5.11715616847826 10.5739856318681  5.3662685326087 10.3818820054945  5.70944671195652 10.3313917307692  L 7.98332013586957 9.99737403846154  C 8.09754760869565 9.98056623626374  8.28574527173913 9.84222755494505  8.33687660326087 9.73767162087912  L 9.35365304347826 7.6546054945055  C 9.50711315217391 7.34030271978022  9.76495122282609 7.15989442307692  10.0608320652174 7.15989442307692  C 10.3567129076087 7.15989442307692  10.6143526902174 7.3402025  10.7679119565217 7.6546054945055  L 11.7846883967391 9.73767162087912  C 11.8358197282609 9.84222758241758  12.0239843478261 9.98056623626374  12.1382117934783 9.99737403846154  L 14.4120191304348 10.3313917307692  C 14.7552633967391 10.3817483516484  15.0045410326087 10.5739521978022  15.0958304347826 10.8583818406593  C 15.1873512228261 11.1428782967033  15.0973177717391 11.4463545604396  14.8489986684783 11.6910870054945  L 13.2037398369565 13.312523021978  C 13.1210108695652 13.3938888736264  13.0490898641304 13.6177368681319  13.0687226902174 13.7327517582418  L 13.4569506521739 16.0221229120879  C 13.5033555706522 16.296127032967  13.4461426630435 16.5462058791209  13.2957894293478 16.7265807967033  C 13.1600121195652 16.8894127472527  12.9654023641304 16.9789987362637  12.7479867934783 16.9789987087912  C 12.6048058423913 16.9789987087912  12.4584188586957 16.9399029945055  12.3128912228261 16.8625803846154  L 10.2792722554348 15.7816341758242  C 10.241427798913 15.7614848626374  10.1591285054348 15.7412018681319  10.0607659782609 15.7412018681319  C 9.96250260869566 15.7412018681319  9.88020328804348 15.7614848626374  9.84235883152174 15.7816341758242  L 7.80847543478261 16.8625803846154  C 7.66298084239131 16.9399029945055  7.51669301630435 16.9789987087912  7.37351209239131 16.9789987087912  C 7.15596432065218 16.9789987087912  6.96145372282609 16.8894127197802  6.82570942934783 16.7265807967033  C 6.6752570652174 16.5462059065934  6.61801111413044 16.2959933516484  6.66454823369566 16.0221229120879  L 7.05297448369566 13.7326849175824  C 7.07250817934783 13.6177368406593  7.00058717391305 13.3938888736264  6.91785820652175 13.312523021978  L 5.27259937500001 11.6910870054945  Z M 6.40333885869565 11.3110232417582  L 8.13552426630435 11.0563999175824  C 8.59620203804348 10.9888345054945  9.08018138586957 10.6333308791209  9.28616100543478 10.2113645604396  L 10.0608320652174 8.62447980769231  L 10.8354370380435 10.2113645604396  C 11.0414827445652 10.6332974725275  11.5253629619565 10.9888345054945  11.9861398913043 11.0563999175824  L 13.7182261141304 11.3110566758242  L 12.4647317934783 12.5462471428571  C 12.1314361684783 12.8746510989011  11.9465767391304 13.4497923901099  12.025240298913 13.9136278846154  L 12.3211211684783 15.6576974450549  L 10.7718451358696 14.8342482692308  C 10.573599673913 14.7289571703297  10.3211160054348 14.6710153296703  10.0607990217391 14.6710153296703  C 9.80041595108695 14.6710153296703  9.54780005434782 14.7289237637363  9.34978595108695 14.8342482692308  L 7.80041076086956 15.6576974450549  L 8.09629163043478 13.9135276373626  C 8.17508741847826 13.4497923901099  7.99009578804348 12.8746510989011  7.65693236413043 12.5461134615385  L 6.40333885869565 11.3110232417582  Z " fill-rule="nonzero" fill="url(#LinearGradient890)" stroke="none" transform="matrix(1 0 0 1 26 186 )" />
  </g>
</svg>