<?xml version="1.0" encoding="utf-8"?>
<svg version="1.1" xmlns:xlink="http://www.w3.org/1999/xlink" width="24px" height="20px" xmlns="http://www.w3.org/2000/svg">
  <defs>
    <linearGradient gradientUnits="userSpaceOnUse" x1="12" y1="13.2034632034645" x2="12" y2="29.8268398268386" id="LinearGradient885">
      <stop id="Stop886" stop-color="#67e1fb" offset="0" />
      <stop id="Stop887" stop-color="#000000" offset="1" />
    </linearGradient>
  </defs>
  <g transform="matrix(1 0 0 1 -24 -562 )">
    <path d="M 11.1275338582677 1.75354838709676  C 9.57943937007875 2.2258064516129  8.40022677165355 3.72  8.10572598425196 5.6858064516129  C 6.99968503937008 6.07935483870968  6.33569763779527 6.62967741935482  6.63019842519685 6.86580645161289  C 7.14723779527559 7.25935483870966  8.84228031496064 7.02322580645163  11.8646929133858 7.02322580645163  C 14.8877102362205 7.02322580645163  18.2046236220472 7.4948387096774  17.4680692913386 6.62967741935486  C 17.3199118110236 6.47225806451612  16.8778582677165 6.15741935483872  16.0669228346457 5.76451612903227  C 15.7718173228346 3.79806451612904  14.5188283464567 2.14645161290324  12.896957480315 1.75290322580647  L 12.7494047244094 3.95548387096774  C 12.7494047244094 4.03419354838711  12.6024566929134 4.11290322580644  12.5280755905512 4.11290322580644  L 12.4549039370079 4.11290322580644  C 12.6024566929134 4.03419354838711  12.6756283464567 3.79806451612904  12.6756283464567 3.64064516129034  L 12.6756283464567 1.83225806451613  C 12.6756283464567 1.43870967741936  12.3811275590551 1.12451612903225  12.0122456692913 1.12451612903225  C 11.643968503937 1.12451612903225  11.348862992126 1.43870967741936  11.348862992126 1.83225806451613  L 11.348862992126 3.64129032258063  C 11.348862992126 3.79806451612904  11.4226393700787 3.95548387096774  11.5701921259842 4.11354838709677  L 11.4958110236221 4.11354838709677  C 11.348862992126 4.11354838709677  11.2750866141732 4.0348387096774  11.2750866141732 3.95548387096774  L 11.1275338582677 1.75354838709676  Z M 15.5777007874016 14.0232258064516  C 15.5777007874016 14.0232258064516  14.7522519685039 13.681935483871  14.4450519685039 13.5503225806452  C 14.2974992125984 13.4722580645161  13.5603401574803 13.0787096774193  13.9292220472441 11.8987096774194  C 14.8877102362205 10.798064516129  15.5510929133858 9.77612903225808  15.5510929133858 7.4948387096774  L 8.39962204724409 7.4948387096774  C 8.39962204724409 9.77612903225808  9.06239999999999 10.798064516129  10.0220976377953 11.8206451612903  C 10.4641511811024 13.158064516129  9.80076850393701 13.4722580645161  9.65321574803151 13.4722580645161  C 9.21116220472442 13.6303225806452  8.84228031496064 13.8658064516129  8.39962204724409 14.0232258064516  L 7.73623937007874 14.338064516129  C 6.18814488188976 15.1245161290323  4.93515590551181 16.2251612903226  4.93515590551181 17.3264516129032  L 4.93515590551181 17.8767741935484  C 4.93515590551181 19.056129032258  7.81062047244094 20  7.81062047244094 20  L 8.98983307086614 19.8425806451613  C 8.98983307086614 19.8425806451613  10.9068094488189 19.6070967741936  12.0860220472441 19.6070967741936  C 13.2652346456693 19.6070967741936  15.182211023622 19.8425806451613  15.182211023622 19.8425806451613  L 16.2882519685039 20  C 16.2882519685039 20  19.1637165354331 18.978064516129  19.1637165354331 17.8767741935484  L 19.1637165354331 17.3258064516129  C 19.1637165354331 16.2245161290323  17.8363464566929 15.201935483871  16.2882519685039 14.3374193548387  L 15.5777007874016 14.0232258064516  Z M 5.68501417322834 5.9090322580645  L 5.68440944881889 5.90967741935483  C 5.8087382703171 5.74467744197676  5.95266125361634 5.59763679951168  6.11255433070866 5.47225806451614  C 6.36653858267717 5.26645161290322  6.69127559055118 5.07225806451611  7.06378582677165 4.8974193548387  C 7.44234330708661 3.42451612903226  8.25327874015748 2.19032258064516  9.34541102362205 1.40258064516129  C 8.91638048301943 1.02840036982276  8.41296654498239 0.763613338441473  7.87351181102363 0.628387096774183  L 7.72535433070865 2.83096774193549  C 7.72535433070865 2.90967741935482  7.57840629921259 2.98838709677419  7.50462992125984 2.98838709677419  L 7.43085354330709 2.98838709677419  C 7.57840629921259 2.90967741935482  7.65218267716535 2.67354838709679  7.65218267716535 2.51612903225805  L 7.65218267716535 0.707741935483881  C 7.65218267716535 0.314193548387109  7.35768188976378 0  6.9888 0  C 6.61991811023622 0  6.32541732283464 0.314193548387109  6.32541732283464 0.707741935483881  L 6.32541732283464 2.51677419354838  C 6.32541732283464 2.67354838709679  6.39858897637794 2.83161290322582  6.54614173228346 2.98903225806452  L 6.47236535433071 2.98903225806452  C 6.32541732283464 2.98903225806452  6.25103622047244 2.91032258064515  6.25103622047244 2.83161290322582  L 6.10408818897638 0.629677419354842  C 4.5559937007874 1.10129032258065  3.37678110236221 2.59548387096775  3.08167559055118 4.56129032258065  C 1.97623937007874 4.95483870967742  1.31225196850394 5.50516129032257  1.60675275590551 5.74129032258064  C 2.05303937007874 6.08129032258063  3.38040944881889 5.9509677419355  5.68501417322834 5.9090322580645  Z M 5.92750866141732 8.08129032258066  C 5.41651653543307 7.67290322580646  5.24598425196851 7.03354838709679  5.41530708661417 6.4516129032258  L 3.59931968503937 6.4516129032258  C 3.59931968503937 8.73290322580644  4.26209763779527 9.75483870967743  5.2211905511811 10.7767741935484  C 5.66384881889764 12.1148387096774  4.99986141732284 12.4290322580645  4.85230866141732 12.4290322580645  C 4.41025511811023 12.5864516129032  4.04137322834645 12.8225806451613  3.59931968503937 12.98  L 2.93533228346456 13.2948387096774  C 1.38723779527559 14.0806451612903  0.134853543307088 15.1812903225806  0.134853543307088 16.2825806451613  L 0.134853543307088 16.8329032258065  C 0.134853543307088 18.0129032258064  3.00971338582677 18.9567741935484  3.00971338582677 18.9567741935484  L 3.86297952755905 18.8425806451613  C 3.77348031496063 18.598064516129  3.72631181102362 18.3329032258064  3.72631181102362 18.0425806451613  L 3.72631181102362 17.4922580645161  C 3.72631181102362 15.8096774193548  5.12020157480315 14.403870967742  7.21678110236221 13.3387096774194  L 7.90919055118111 13.0096774193548  L 8.01622677165354 12.9658064516129  C 8.19009994469969 12.9000650809717  8.36048221154198 12.8242535247689  8.52661417322834 12.7387096774194  C 8.64206039495306 12.6822920029472  8.75817694094477 12.6274488254973  8.87493543307087 12.5741935483871  C 7.86444094488188 11.4051612903226  7.34679685039371 10.2412903225806  7.2216188976378 8.53870967741937  C 6.53707086614173 8.50000000000001  6.31150866141733 8.37419354838708  5.92750866141732 8.08129032258066  Z M 14.93445 11.3865340909091  C 14.93445 11.3865340909091  15.7991590909091 9.98529829545454  17.1658363636364 9.23355113636365  C 18.5334545454545 8.48181818181818  20.2170409090909 8.69798295454544  21.3210409090909 9.42684659090908  C 22.4259954545455 10.1557102272727  22.79805 10.7711221590909  22.79805 10.7711221590909  L 23.7496772727273 10.2014630681818  C 23.7496772727273 10.2014630681818  23.9459727272727 10.09921875  23.9459727272727 10.33828125  L 23.9459727272727 13.9153693181818  C 23.9459727272727 13.9153693181818  23.9459727272727 14.2342897727273  23.7160227272727 14.1198579545454  C 23.52345 14.0244460227273  21.4332272727273 12.7755965909091  20.7751090909091 12.3817045454545  C 20.4142909090909 12.2122727272727  20.7311863636364 12.0744886363637  20.7311863636364 12.0744886363637  L 21.6501 11.5228551136364  C 21.6501 11.5228551136364  21.1256727272727 10.8334232954546  20.3591318181818 10.4682670454546  C 19.5393136363636 10.019375  18.7709045454545 9.96580965909089  17.8304727272727 10.3392471590909  C 17.2163181818182 10.5826988636364  16.4937136363636 11.2063778409091  15.9739636363636 12.1265767045455  L 14.9344636363636 11.3865198863637  Z M 23.4654954545455 16.1136363636363  C 23.4654954545455 16.1136363636363  22.6007863636364 17.5143892045455  21.2341227272727 18.2665909090909  C 19.8674318181818 19.0183380681818  18.1829045454545 18.8016761363636  17.0789045454545 18.0728267045454  C 15.9739636363636 17.3439772727273  15.6019090909091 16.7285511363636  15.6019090909091 16.7285511363636  L 14.6502818181818 17.2982102272727  C 14.6502818181818 17.2982102272727  14.4539727272727 17.4004545454546  14.4539727272727 17.161875  L 14.4539727272727 13.5842897727273  C 14.4539727272727 13.5842897727273  14.4539727272727 13.2658806818182  14.6839363636364 13.3798011363636  C 14.8764954545455 13.4752414772727  16.9667318181818 14.7240767045454  17.6248363636364 15.1179545454545  C 17.9856545454546 15.2873863636364  17.6687727272727 15.4256818181818  17.6687727272727 15.4256818181818  L 16.7498454545455 15.9768181818182  C 16.7498454545455 15.9768181818182  17.2742727272727 16.6662357954545  18.0408136363636 17.03140625  C 18.8606454545455 17.4802982954546  19.6290409090909 17.5338636363636  20.5694727272727 17.1604261363636  C 21.1836272727273 16.9169744318182  21.9062454545455 16.2937784090909  22.4259818181818 15.3730823863636  L 23.4654818181818 16.1136363636363  Z " fill-rule="nonzero" fill="url(#LinearGradient885)" stroke="none" transform="matrix(1 0 0 1 24 562 )" />
  </g>
</svg>