<?xml version="1.0" encoding="utf-8"?>
<svg version="1.1" xmlns:xlink="http://www.w3.org/1999/xlink" width="23px" height="20px" xmlns="http://www.w3.org/2000/svg">
  <defs>
    <linearGradient gradientUnits="userSpaceOnUse" x1="11.5" y1="13.2034632034645" x2="11.5" y2="29.8268398268386" id="LinearGradient897">
      <stop id="Stop898" stop-color="#67e1fb" offset="0" />
      <stop id="Stop899" stop-color="#000000" offset="1" />
    </linearGradient>
  </defs>
  <g transform="matrix(1 0 0 1 -23 -747 )">
    <path d="M 20.6306767103806 9.16962403584719  L 11.4162070627732 3.42416161616162  L 2.20186565141536 9.16962403584719  L 2.19142433033488 19.9167278778765  L 4.53143891625705 19.9167278778765  L 4.52258815555685 10  L 18.3099798878074 10  L 18.3114421928724 19.9545834282676  L 20.6142835571616 19.9167278778765  L 20.6306767103806 9.16962403584719  Z M 0 7.16058534214324  L 0.823095692720172 8.48176228206881  L 11.4162070627732 1.87865063385737  L 22.0063424976913 8.4817884517354  L 22.8324141064807 7.16063766203387  L 11.4162070627732 0.0453904020657709  L 0 7.16058534214324  Z M 16.3221008548116 19.9090570498716  C 16.320132904399 19.9090570498716  16.3181649597596 19.9090501752798  16.3161970555329 19.9090364262171  L 6.51334376582283 19.9090364262171  C 6.03926456191679 19.9063991407767  5.65631335331767 19.5137435721373  5.65631335331767 19.0302880206577  C 5.65631335331767 18.5468324691782  6.0392645619168 18.1541769005387  6.51334376582283 18.1515396150984  L 16.3190446781553 18.1515396150984  C 16.3200633997032 18.1515359307216  16.3210821268569 18.1515340885289  16.3221008548116 18.1515340885289  C 16.7980218657493 18.1515340885289  17.1838320742297 18.5449690046867  17.1838320742297 19.0302955692002  C 17.1838320742297 19.5156221337138  16.7980218657493 19.9090570498716  16.3221008548116 19.9090570498716  Z M 16.9335716115655 16.7031353847177  C 16.9318180465271 16.7031353847177  16.9300644887148 16.7031281246245  16.9283109814847 16.7031136046176  L 5.90122983987099 16.7031136046176  C 5.5450161030021 16.7008273752488  5.25743116656868 16.4057073735523  5.25743116656868 16.0424466450976  C 5.25743116656868 15.6791859166429  5.5450161030021 15.3840659149463  5.90122983987099 15  L 16.9312099291122 15  C 16.9319971533276 15.3817767592023  16.9327843821197 15.3817752960111  16.9335716115655 15.3817752960111  C 17.2913837386682 15.3817752960111  17.5814477790902 15.6775718273505  17.5814477790902 16.0424553403644  C 17.5814477790902 16.4073388533782  17.2913837386682 16.7031353847177  16.9335716115655 16.7031353847177  Z M 16.3221029818835 13.933400480824  C 16.3201343224322 13.933400480824  16.3181656687594 13.9333936020967  16.3161970555329 13.9333798447634  L 6.51334376582283 13.9333798447634  C 6.03920867655932 13.9307414251909  5.65621274957497 13.5380393363318  5.65621274957497 13.0545267897015  C 5.65621274957497 12.5710142430713  6.03920867655932 12.1783121542122  6.51334376582283 12.1756737346396  L 16.3190446781553 12.1756737346396  C 16.3200641087199 12.1756700455718  16.3210835449002 12.1756682010336  16.3221029818835 12.1756682010336  C 16.7980806743265 12.1756682010336  17.1839368322458 12.569149974722  17.1839368322458 13.0545343409288  C 17.1839368322458 13.5399187071356  16.7980806743265 13.933400480824  16.3221029818835 13.933400480824  Z " fill-rule="nonzero" fill="url(#LinearGradient897)" stroke="none" transform="matrix(1 0 0 1 23 747 )" />
  </g>
</svg>