<?xml version="1.0" encoding="utf-8"?>
<svg version="1.1" xmlns:xlink="http://www.w3.org/1999/xlink" width="90px" height="40px" xmlns="http://www.w3.org/2000/svg">
  <defs>
    <linearGradient gradientUnits="userSpaceOnUse" x1="275" y1="11" x2="275" y2="51" id="LinearGradient949">
      <stop id="Stop950" stop-color="#8f833c" offset="0" />
      <stop id="Stop951" stop-color="#8d7136" offset="0.97" />
    </linearGradient>
  </defs>
  <g transform="matrix(1 0 0 1 -230 -11 )">
    <path d="M 231.5 12.5  L 318 12.5  A 0.5 0.5 0 0 1 318.5 13 L 318.5 49  A 0.5 0.5 0 0 1 318 49.5 L 231.5 49.5  L 231.5 12.5  Z " fill-rule="nonzero" fill="#8d803a" stroke="none" />
    <path d="M 231 12  L 318 12  A 1 1 0 0 1 319 13 L 319 49  A 1 1 0 0 1 318 50 L 231 50  L 231 12  Z " stroke-width="2" stroke="url(#LinearGradient949)" fill="none" />
  </g>
</svg>