<?xml version="1.0" encoding="utf-8"?>
<svg version="1.1" xmlns:xlink="http://www.w3.org/1999/xlink" width="120px" height="40px" xmlns="http://www.w3.org/2000/svg">
  <defs>
    <linearGradient gradientUnits="userSpaceOnUse" x1="70" y1="10" x2="70" y2="48.8" id="LinearGradient961">
      <stop id="Stop962" stop-color="#8f833c" offset="0" />
      <stop id="Stop963" stop-color="#8d7136" offset="1" />
    </linearGradient>
  </defs>
  <g transform="matrix(1 0 0 1 -10 -10 )">
    <path d="M 10.5 12  A 1.5 1.5 0 0 1 12 10.5 L 129.5 10.5  L 129.5 49.5  L 12 49.5  A 1.5 1.5 0 0 1 10.5 48 L 10.5 12  Z " fill-rule="nonzero" fill="url(#LinearGradient961)" stroke="none" />
    <path d="M 10.5 12  A 1.5 1.5 0 0 1 12 10.5 L 129.5 10.5  L 129.5 49.5  L 12 49.5  A 1.5 1.5 0 0 1 10.5 48 L 10.5 12  Z " stroke-width="1" stroke="#90dde7" fill="none" />
  </g>
</svg>