<?xml version="1.0" encoding="utf-8"?>
<svg version="1.1" xmlns:xlink="http://www.w3.org/1999/xlink" width="120px" height="40px" xmlns="http://www.w3.org/2000/svg">
  <defs>
    <linearGradient gradientUnits="userSpaceOnUse" x1="71" y1="10" x2="71" y2="50" id="LinearGradient978">
      <stop id="Stop979" stop-color="#ffffff" stop-opacity="0.00392156862745098" offset="0" />
      <stop id="Stop980" stop-color="#2b6170" offset="0" />
      <stop id="Stop981" stop-color="#275867" offset="0.11" />
      <stop id="Stop982" stop-color="#081721" offset="1" />
    </linearGradient>
  </defs>
  <g transform="matrix(1 0 0 1 -11 -10 )">
    <path d="M 11.5 12  A 1.5 1.5 0 0 1 13 10.5 L 130.5 10.5  L 130.5 49.5  L 13 49.5  A 1.5 1.5 0 0 1 11.5 48 L 11.5 12  Z " fill-rule="nonzero" fill="url(#LinearGradient978)" stroke="none" />
    <path d="M 11.5 12  A 1.5 1.5 0 0 1 13 10.5 L 130.5 10.5  L 130.5 49.5  L 13 49.5  A 1.5 1.5 0 0 1 11.5 48 L 11.5 12  Z " stroke-width="1" stroke="#008080" fill="none" />
  </g>
</svg>