<?xml version="1.0" encoding="utf-8"?>
<svg version="1.1" xmlns:xlink="http://www.w3.org/1999/xlink" width="525px" height="445px" xmlns="http://www.w3.org/2000/svg">
  <defs>
    <radialGradient cx="337.839822024473" cy="341.423563218387" r="285.724924428981" gradientTransform="matrix(0.964234526857653 0.265050518233031 -0.0934799331426934 0.340073204555225 43.9992529440266 135.769938056705 )" gradientUnits="userSpaceOnUse" id="RadialGradient983">
      <stop id="Stop984" stop-color="#80ffff" offset="0" />
      <stop id="Stop985" stop-color="#80ffff" offset="0.36" />
      <stop id="Stop986" stop-color="#04779d" offset="1" />
    </radialGradient>
  </defs>
  <g transform="matrix(1 0 0 1 -157 -40 )">
    <path d="M 157.5 484.5  C 157.5 484.5  157.5 50.1973365617433  157.5 50.1973365617433  C 157.5 50.1973365617433  370.275866591282 50.1973365617433  370.275866591282 50.1973365617433  C 370.275866591282 50.1973365617433  385.852867830423 41.2235254685422  385.852867830423 41.2235254685422  C 385.852867830423 41.2235254685422  401.429869069564 50.1973365617433  401.429869069564 50.1973365617433  C 401.429869069564 50.1973365617433  681.5 50.1973365617433  681.5 50.1973365617433  C 681.5 50.1973365617433  681.5 484.5  681.5 484.5  C 681.5 484.5  157.5 484.5  157.5 484.5  Z " fill-rule="nonzero" fill="#091322" stroke="none" fill-opacity="0.847058823529412" />
    <path d="M 157 485  C 157 485  157 49.6973365617433  157 49.6973365617433  C 157 49.6973365617433  370.142144638403 49.6973365617433  370.142144638403 49.6973365617433  C 370.142144638403 49.6973365617433  385.852867830423 40.6464891041147  385.852867830423 40.6464891041147  C 385.852867830423 40.6464891041147  401.563591022443 49.6973365617433  401.563591022443 49.6973365617433  C 401.563591022443 49.6973365617433  682 49.6973365617433  682 49.6973365617433  C 682 49.6973365617433  682 485  682 485  C 682 485  157 485  157 485  Z M 158 484  C 158 484  681 484  681 484  C 681 484  681 50.6973365617433  681 50.6973365617433  C 681 50.6973365617433  401.296147116686 50.6973365617433  401.296147116686 50.6973365617433  C 401.296147116686 50.6973365617433  385.852867830423 41.8005618329698  385.852867830423 41.8005618329698  C 385.852867830423 41.8005618329698  370.40958854416 50.6973365617433  370.40958854416 50.6973365617433  C 370.40958854416 50.6973365617433  158 50.6973365617433  158 50.6973365617433  C 158 50.6973365617433  158 484  158 484  Z " fill-rule="nonzero" fill="url(#RadialGradient983)" stroke="none" />
  </g>
</svg>