<?xml version="1.0" encoding="utf-8"?>
<svg version="1.1" xmlns:xlink="http://www.w3.org/1999/xlink" width="120px" height="40px" xmlns="http://www.w3.org/2000/svg">
  <defs>
    <linearGradient gradientUnits="userSpaceOnUse" x1="190" y1="10" x2="190" y2="50" id="LinearGradient975">
      <stop id="Stop976" stop-color="#8f833c" offset="0" />
      <stop id="Stop977" stop-color="#8d7136" offset="0.97" />
    </linearGradient>
  </defs>
  <g transform="matrix(1 0 0 1 -130 -10 )">
    <path d="M 131.5 11.5  L 248 11.5  A 0.5 0.5 0 0 1 248.5 12 L 248.5 48  A 0.5 0.5 0 0 1 248 48.5 L 131.5 48.5  L 131.5 11.5  Z " fill-rule="nonzero" fill="#8d803a" stroke="none" />
    <path d="M 131 11  L 248 11  A 1 1 0 0 1 249 12 L 249 48  A 1 1 0 0 1 248 49 L 131 49  L 131 11  Z " stroke-width="2" stroke="url(#LinearGradient975)" fill="none" />
  </g>
</svg>