<?xml version="1.0" encoding="utf-8"?>
<svg version="1.1" xmlns:xlink="http://www.w3.org/1999/xlink" width="50px" height="26px" xmlns="http://www.w3.org/2000/svg">
  <g transform="matrix(1 0 0 1 -512 -429 )">
    <path d="M 513 432  A 2 2 0 0 1 515 430 L 559 430  A 2 2 0 0 1 561 432 L 561 452  A 2 2 0 0 1 559 454 L 515 454  A 2 2 0 0 1 513 452 L 513 432  Z " fill-rule="nonzero" fill="#ffffff" stroke="none" fill-opacity="0" />
    <path d="M 512.5 432  A 2.5 2.5 0 0 1 515 429.5 L 559 429.5  A 2.5 2.5 0 0 1 561.5 432 L 561.5 452  A 2.5 2.5 0 0 1 559 454.5 L 515 454.5  A 2.5 2.5 0 0 1 512.5 452 L 512.5 432  Z " stroke-width="1" stroke="#0fbffd" fill="none" stroke-opacity="0.8" />
  </g>
</svg>