<?xml version="1.0" encoding="utf-8"?>
<svg version="1.1" xmlns:xlink="http://www.w3.org/1999/xlink" width="424px" height="175px" xmlns="http://www.w3.org/2000/svg">
  <defs>
    <filter x="915px" y="295px" width="424px" height="175px" filterUnits="userSpaceOnUse" id="filter445">
      <feOffset dx="5" dy="5" in="SourceAlpha" result="shadowOffsetInner" />
      <feGaussianBlur stdDeviation="2.5" in="shadowOffsetInner" result="shadowGaussian" />
      <feComposite in2="shadowGaussian" operator="atop" in="SourceAlpha" result="shadowComposite" />
      <feColorMatrix type="matrix" values="0 0 0 0 0.00784313725490196  0 0 0 0 0.490196078431373  0 0 0 0 0.705882352941176  0 0 0 0.596078431372549 0  " in="shadowComposite" />
    </filter>
    <g id="widget446">
      <path d="M 916 446.777777777778  C 916 446.777777777778  916 296  916 296  C 916 296  1328 296  1328 296  C 1328 296  1328 446.777777777778  1328 446.777777777778  C 1328 446.777777777778  1104.81101630945 446.777777777778  1104.81101630945 446.777777777778  C 1104.81101630945 446.777777777778  1092.30228339504 458.244116282648  1092.30228339504 458.244116282648  C 1092.30228339504 458.244116282648  1075.10277563773 446.777777777778  1075.10277563773 446.777777777778  C 1075.10277563773 446.777777777778  916 446.777777777778  916 446.777777777778  Z " fill-rule="nonzero" fill="#0a1225" stroke="none" fill-opacity="0.6" />
      <path d="M 915 447.777777777778  C 915 447.777777777778  915 295  915 295  C 915 295  1329 295  1329 295  C 1329 295  1329 447.777777777778  1329 447.777777777778  C 1329 447.777777777778  1105.2 447.777777777778  1105.2 447.777777777778  C 1105.2 447.777777777778  1092.4 459.511111111109  1092.4 459.511111111109  C 1092.4 459.511111111109  1074.8 447.777777777778  1074.8 447.777777777778  C 1074.8 447.777777777778  915 447.777777777778  915 447.777777777778  Z M 916 446.777777777778  C 916 446.777777777778  1075.10277563773 446.777777777778  1075.10277563773 446.777777777778  C 1075.10277563773 446.777777777778  1092.30228339504 458.244116282648  1092.30228339504 458.244116282648  C 1092.30228339504 458.244116282648  1104.81101630945 446.777777777778  1104.81101630945 446.777777777778  C 1104.81101630945 446.777777777778  1328 446.777777777778  1328 446.777777777778  C 1328 446.777777777778  1328 296  1328 296  C 1328 296  916 296  916 296  C 916 296  916 446.777777777778  916 446.777777777778  Z " fill-rule="nonzero" fill="#027db4" stroke="none" fill-opacity="0.498039215686275" />
    </g>
  </defs>
  <g transform="matrix(1 0 0 1 -915 -295 )">
    <use xlink:href="#widget446" filter="url(#filter445)" />
    <use xlink:href="#widget446" />
  </g>
</svg>