<?xml version="1.0" encoding="utf-8"?>
<svg version="1.1" xmlns:xlink="http://www.w3.org/1999/xlink" width="484px" height="178px" xmlns="http://www.w3.org/2000/svg">
  <defs>
    <filter x="876px" y="115px" width="484px" height="178px" filterUnits="userSpaceOnUse" id="filter30">
      <feOffset dx="5" dy="5" in="SourceAlpha" result="shadowOffsetInner" />
      <feGaussianBlur stdDeviation="2.5" in="shadowOffsetInner" result="shadowGaussian" />
      <feComposite in2="shadowGaussian" operator="atop" in="SourceAlpha" result="shadowComposite" />
      <feColorMatrix type="matrix" values="0 0 0 0 0.00784313725490196  0 0 0 0 0.490196078431373  0 0 0 0 0.705882352941176  0 0 0 0.596078431372549 0  " in="shadowComposite" />
    </filter>
    <g id="widget31">
      <path d="M 877 270.034482758621  C 877 270.034482758621  877 116  877 116  C 877 116  1349 116  1349 116  C 1349 116  1349 270.034482758621  1349 270.034482758621  C 1349 270.034482758621  955.640368191634 270.034482758621  955.640368191634 270.034482758621  C 955.640368191634 270.034482758621  941.95920038228 281.336610057283  941.95920038228 281.336610057283  C 941.95920038228 281.336610057283  926.323580028732 270.034482758621  926.323580028732 270.034482758621  C 926.323580028732 270.034482758621  877 270.034482758621  877 270.034482758621  Z " fill-rule="nonzero" fill="#0a1225" stroke="none" fill-opacity="0.6" />
      <path d="M 876 271.034482758621  C 876 271.034482758621  876 115  876 115  C 876 115  1350 115  1350 115  C 1350 115  1350 271.034482758621  1350 271.034482758621  C 1350 271.034482758621  956 271.034482758621  956 271.034482758621  C 956 271.034482758621  942 282.599999999999  942 282.599999999999  C 942 282.599999999999  926 271.034482758621  926 271.034482758621  C 926 271.034482758621  876 271.034482758621  876 271.034482758621  Z M 877 270.034482758621  C 877 270.034482758621  926.323580028732 270.034482758621  926.323580028732 270.034482758621  C 926.323580028732 270.034482758621  941.95920038228 281.336610057283  941.95920038228 281.336610057283  C 941.95920038228 281.336610057283  955.640368191634 270.034482758621  955.640368191634 270.034482758621  C 955.640368191634 270.034482758621  1349 270.034482758621  1349 270.034482758621  C 1349 270.034482758621  1349 116  1349 116  C 1349 116  877 116  877 116  C 877 116  877 270.034482758621  877 270.034482758621  Z " fill-rule="nonzero" fill="#027db4" stroke="none" fill-opacity="0.498039215686275" />
    </g>
  </defs>
  <g transform="matrix(1 0 0 1 -876 -115 )">
    <use xlink:href="#widget31" filter="url(#filter30)" />
    <use xlink:href="#widget31" />
  </g>
</svg>