<?xml version="1.0" encoding="utf-8"?>
<svg version="1.1" xmlns:xlink="http://www.w3.org/1999/xlink" width="424px" height="165px" xmlns="http://www.w3.org/2000/svg">
  <defs>
    <filter x="900px" y="295px" width="424px" height="165px" filterUnits="userSpaceOnUse" id="filter28">
      <feOffset dx="5" dy="5" in="SourceAlpha" result="shadowOffsetInner" />
      <feGaussianBlur stdDeviation="2.5" in="shadowOffsetInner" result="shadowGaussian" />
      <feComposite in2="shadowGaussian" operator="atop" in="SourceAlpha" result="shadowComposite" />
      <feColorMatrix type="matrix" values="0 0 0 0 0.00784313725490196  0 0 0 0 0.490196078431373  0 0 0 0 0.705882352941176  0 0 0 0.596078431372549 0  " in="shadowComposite" />
    </filter>
    <g id="widget29">
      <path d="M 901 449  C 901 449  901 307.481481481481  901 307.481481481481  C 901 307.481481481481  937.251628881757 307.481481481481  937.251628881757 307.481481481481  C 937.251628881757 307.481481481481  945.501193876504 297.163660828143  945.501193876504 297.163660828143  C 945.501193876504 297.163660828143  956.371818150123 307.481481481481  956.371818150123 307.481481481481  C 956.371818150123 307.481481481481  1313 307.481481481481  1313 307.481481481481  C 1313 307.481481481481  1313 449  1313 449  C 1313 449  901 449  901 449  Z " fill-rule="nonzero" fill="#0a1225" stroke="none" fill-opacity="0.6" />
      <path d="M 900 450  C 900 450  900 306.481481481481  900 306.481481481481  C 900 306.481481481481  936.770833333335 306.481481481481  936.770833333335 306.481481481481  C 936.770833333335 306.481481481481  945.400000000001 295.688888888887  945.400000000001 295.688888888887  C 945.400000000001 295.688888888887  956.770833333335 306.481481481481  956.770833333335 306.481481481481  C 956.770833333335 306.481481481481  1314 306.481481481481  1314 306.481481481481  C 1314 306.481481481481  1314 450  1314 450  C 1314 450  900 450  900 450  Z M 901 449  C 901 449  1313 449  1313 449  C 1313 449  1313 307.481481481481  1313 307.481481481481  C 1313 307.481481481481  956.371818150123 307.481481481481  956.371818150123 307.481481481481  C 956.371818150123 307.481481481481  945.501193876504 297.163660828143  945.501193876504 297.163660828143  C 945.501193876504 297.163660828143  937.251628881757 307.481481481481  937.251628881757 307.481481481481  C 937.251628881757 307.481481481481  901 307.481481481481  901 307.481481481481  C 901 307.481481481481  901 449  901 449  Z " fill-rule="nonzero" fill="#027db4" stroke="none" fill-opacity="0.498039215686275" />
    </g>
  </defs>
  <g transform="matrix(1 0 0 1 -900 -295 )">
    <use xlink:href="#widget29" filter="url(#filter28)" />
    <use xlink:href="#widget29" />
  </g>
</svg>