<?xml version="1.0" encoding="utf-8"?>
<svg version="1.1" xmlns:xlink="http://www.w3.org/1999/xlink" width="26px" height="26px" xmlns="http://www.w3.org/2000/svg">
  <defs>
    <mask fill="white" id="clip63">
      <path d="M 0.209824561403503 2.26306431798246  C 0.210495590756385 1.1293693784675  1.12936937846751 0.210495590756399  2.26306431798246 0.209824561403511  L 23.7320701754386 0.209824561403511  C 24.8657651149536 0.210495590756399  25.7846389026646 1.1293693784675  25.7853099320176 2.26306431798246  L 25.7853099320176 23.7320701754386  C 25.7846389026646 24.8657651149536  24.8657651149536 25.7846389026647  23.7320701754386 25.7853099320175  L 2.26549708552633 25.7853099320175  C 1.13223658957169 25.7826410926341  0.213835339652758 24.8653267165858  0.209824561403503 23.7320701754386  L 0.209824561403503 2.26306431798246  Z " fill-rule="evenodd" />
    </mask>
  </defs>
  <g transform="matrix(1 0 0 1 -867 -818 )">
    <path d="M 0.209824561403503 2.26306431798246  C 0.210495590756385 1.1293693784675  1.12936937846751 0.210495590756399  2.26306431798246 0.209824561403511  L 23.7320701754386 0.209824561403511  C 24.8657651149536 0.210495590756399  25.7846389026646 1.1293693784675  25.7853099320176 2.26306431798246  L 25.7853099320176 23.7320701754386  C 25.7846389026646 24.8657651149536  24.8657651149536 25.7846389026647  23.7320701754386 25.7853099320175  L 2.26549708552633 25.7853099320175  C 1.13223658957169 25.7826410926341  0.213835339652758 24.8653267165858  0.209824561403503 23.7320701754386  L 0.209824561403503 2.26306431798246  Z " fill-rule="nonzero" fill="#015478" stroke="none" transform="matrix(1 0 0 1 867 818 )" />
    <path d="M 0.209824561403503 2.26306431798246  C 0.210495590756385 1.1293693784675  1.12936937846751 0.210495590756399  2.26306431798246 0.209824561403511  L 23.7320701754386 0.209824561403511  C 24.8657651149536 0.210495590756399  25.7846389026646 1.1293693784675  25.7853099320176 2.26306431798246  L 25.7853099320176 23.7320701754386  C 25.7846389026646 24.8657651149536  24.8657651149536 25.7846389026647  23.7320701754386 25.7853099320175  L 2.26549708552633 25.7853099320175  C 1.13223658957169 25.7826410926341  0.213835339652758 24.8653267165858  0.209824561403503 23.7320701754386  L 0.209824561403503 2.26306431798246  Z " stroke-width="2" stroke="#0fbffd" fill="none" transform="matrix(1 0 0 1 867 818 )" mask="url(#clip63)" />
  </g>
</svg>