<?xml version="1.0" encoding="utf-8"?>
<svg version="1.1" xmlns:xlink="http://www.w3.org/1999/xlink" width="26px" height="26px" xmlns="http://www.w3.org/2000/svg">
  <defs>
    <mask fill="white" id="clip62">
      <path d="M 25.7901754385965 23.7369356820175  C 25.7895044092436 24.8706306215325  24.8706306215325 25.7895044092436  23.7369356820175 25.7901754385965  L 2.2679298245614 25.7901754385965  C 1.13423488504645 25.7895044092436  0.215361097335354 24.8706306215325  0.214690067982452 23.7369356820175  L 0.214690067982452 2.2679298245614  C 0.215361097335354 1.13423488504646  1.13423488504645 0.215361097335354  2.2679298245614 0.214690067982463  L 23.7345029144737 0.214690067982463  C 24.8677634104283 0.21735890736594  25.7861646603473 1.13467328341423  25.7901754385965 2.2679298245614  L 25.7901754385965 23.7369356820175  Z " fill-rule="evenodd" />
    </mask>
  </defs>
  <g transform="matrix(1 0 0 1 -663 -818 )">
    <path d="M 25.7901754385965 23.7369356820175  C 25.7895044092436 24.8706306215325  24.8706306215325 25.7895044092436  23.7369356820175 25.7901754385965  L 2.2679298245614 25.7901754385965  C 1.13423488504645 25.7895044092436  0.215361097335354 24.8706306215325  0.214690067982452 23.7369356820175  L 0.214690067982452 2.2679298245614  C 0.215361097335354 1.13423488504646  1.13423488504645 0.215361097335354  2.2679298245614 0.214690067982463  L 23.7345029144737 0.214690067982463  C 24.8677634104283 0.21735890736594  25.7861646603473 1.13467328341423  25.7901754385965 2.2679298245614  L 25.7901754385965 23.7369356820175  Z " fill-rule="nonzero" fill="#015478" stroke="none" transform="matrix(1 0 0 1 663 818 )" />
    <path d="M 25.7901754385965 23.7369356820175  C 25.7895044092436 24.8706306215325  24.8706306215325 25.7895044092436  23.7369356820175 25.7901754385965  L 2.2679298245614 25.7901754385965  C 1.13423488504645 25.7895044092436  0.215361097335354 24.8706306215325  0.214690067982452 23.7369356820175  L 0.214690067982452 2.2679298245614  C 0.215361097335354 1.13423488504646  1.13423488504645 0.215361097335354  2.2679298245614 0.214690067982463  L 23.7345029144737 0.214690067982463  C 24.8677634104283 0.21735890736594  25.7861646603473 1.13467328341423  25.7901754385965 2.2679298245614  L 25.7901754385965 23.7369356820175  Z " stroke-width="2" stroke="#0fbffd" fill="none" transform="matrix(1 0 0 1 663 818 )" mask="url(#clip62)" />
  </g>
</svg>