<?xml version="1.0" encoding="utf-8"?>
<svg version="1.1" xmlns:xlink="http://www.w3.org/1999/xlink" width="10px" height="17px" xmlns="http://www.w3.org/2000/svg">
  <g transform="matrix(1 0 0 1 -671 -823 )">
    <path d="M 8.93851850877193 1.17286080877193  C 8.73895729676091 0.95693469710171  8.4609460933655 0.834483399369339  8.17001950292398 0.834371929824559  C 7.90201146120536 0.834122203400727  7.64404532547525 0.938370871931218  7.44892786549708 1.1257777877193  L 0.553645233918125 7.72249357719298  C 0.341906878606117 7.92548140072871  0.221822524552865 8.20869768304171  0.221822524552865 8.50509006842105  C 0.221822524552865 8.80148245380039  0.341906878606117 9.08469873611341  0.553645233918125 9.28768655964911  L 7.44144248538011 15.8729497175439  C 7.63876697204452 16.0732990959616  7.90585469288237 16.1857770531078  8.18427550076748 16.1857770531078  C 8.76580012694686 16.1857770531078  9.23721898029965 15.704929822688  9.23721898029965 15.111774703985  C 9.23721898029965 14.8043167997505  9.10803370522518 14.5116016556111  8.88237815789473 14.3077567350877  L 2.81423002923977 8.50127252456142  L 8.8898635380117 2.69097077017543  C 9.31363553485693 2.28515672510259  9.33540104941393 1.60603917662239  8.93851850877193 1.17286080877193  Z " fill-rule="nonzero" fill="#ffffff" stroke="none" transform="matrix(1 0 0 1 671 823 )" />
  </g>
</svg>