<?xml version="1.0" encoding="utf-8"?>
<svg version="1.1" xmlns:xlink="http://www.w3.org/1999/xlink" width="9px" height="17px" xmlns="http://www.w3.org/2000/svg">
  <g transform="matrix(1 0 0 1 -876 -822 )">
    <path d="M 0.918909099581325 16.2850853906798  C 1.09647322345023 16.5145068843294  1.34384001010776 16.6446113881701  1.60269855592105 16.6447298245614  C 1.84116480213203 16.6449951588867  2.07069603426466 16.5342309485731  2.24430622876796 16.3351111005483  L 8.37954066118421 9.32610057423247  C 8.56793967505842 9.11042601172576  8.67478745826716 8.80950871176818  8.67478745826716 8.49459180230263  C 8.67478745826716 8.17967489283708  8.56793967505842 7.8787575928795  8.37954066118421 7.66308303037282  L 2.25096651584928 0.666240925109648  C 2.07539256919222 0.453369710540846  1.83774519940127 0.333861881072973  1.59001395783984 0.333861881072973  C 1.07258920522798 0.333861881072973  0.65313356639246 0.844762063394053  0.65313356639246 1.47498937701596  C 0.65313356639246 1.80166340026505  0.768079100918964 2.11267324091321  0.968861252691371 2.3292584689693  L 6.36813396261962 8.4986479426535  L 0.96220096561005 14.6720935563717  C 0.585140200063692 15.1032709792942  0.565773838813078 15.8248333747981  0.918909099581325 16.2850853906798  Z " fill-rule="nonzero" fill="#ffffff" stroke="none" transform="matrix(1 0 0 1 876 822 )" />
  </g>
</svg>