<?xml version="1.0" encoding="utf-8"?>
<svg version="1.1" xmlns:xlink="http://www.w3.org/1999/xlink" width="57px" height="95px" xmlns="http://www.w3.org/2000/svg">
  <defs>
    <linearGradient gradientUnits="userSpaceOnUse" x1="4.81855670103132" y1="5.12883435582781" x2="34.9051546391761" y2="91.8527607361976" id="LinearGradient171">
      <stop id="Stop172" stop-color="#d9001b" offset="0" />
      <stop id="Stop173" stop-color="#ea9457" offset="1" />
    </linearGradient>
  </defs>
  <g transform="matrix(1 0 0 1 -391 -46 )">
    <path d="M 31.1541134581571 88.4357259461766  C 31.1765863116914 88.4191124913959  31.199041054619 88.4024802994477  31.2214776715229 88.3858294008003  C 33.7525553366104 86.5074393631818  36.052958952601 84.3909855240656  38.100555641169 82.0802088656344  C 45.2882791700899 73.9686389209191  49.360824742268 63.4625532507303  49.360824742268 52.4539877300614  C 49.360824742268 27.6689389876548  29.1028635773954 7.57668711656442  4.11340221072188 7.5661035546913  C 4.01652579051837 7.57311924614934  3.91854725007633 7.57668711656442  3.81958762886598 7.57668711656442  C 1.68061855670104 7.57668711656442  0 5.90981595092017  0 3.78834355828221  C 0 1.66687116564425  1.68061855670104 0  3.81958762886598 0  C 3.91854734374683 0  4.01652597600204 0.00356787716954068  4.11340206185567 0.00116189501326422  C 3.87872850295713 0.000387300482476694  3.99606511996314 0  4.11340206185567 0  C 33.3218635735255 0  57 23.4844502389369  57 52.4539877300614  C 57 68.9761491420027  49.1515042640649 84.5299454628746  35.8236136571971 94.4333467641586  C 35.7889223376576 94.4591244411521  35.7541938944057 94.4848638358822  35.7112852432847 94.4997292108238  C 35.1494645168014 94.8187544868298  34.4939812900615 95  33.7886597938144 95  C 31.6496907216495 95  29.9690721649485 93.3331288343557  29.9690721649485 91.2116564417178  C 29.9690721649485 90.1091252069321  30.4229888943839 89.1293768019155  31.1541134581571 88.4357259461766  Z M 4.11340206185567 7.57808923135242  C 4.01301378934761 7.57808923135242  3.91262579479803 7.5770184736439  4.11340206185567 7.57808923135242  Z " fill-rule="nonzero" fill="url(#LinearGradient171)" stroke="none" transform="matrix(1 0 0 1 391 46 )" />
  </g>
</svg>