<?xml version="1.0" encoding="utf-8"?>
<svg version="1.1" xmlns:xlink="http://www.w3.org/1999/xlink" width="81px" height="81px" xmlns="http://www.w3.org/2000/svg">
  <g transform="matrix(1 0 0 1 -354 -182 )">
    <path d="M 394.5 182.5  C 416.9 182.5  434.5 200.1  434.5 222.5  C 434.5 244.9  416.9 262.5  394.5 262.5  C 372.1 262.5  354.5 244.9  354.5 222.5  C 354.5 200.1  372.1 182.5  394.5 182.5  Z " fill-rule="nonzero" fill="#000000" stroke="none" />
    <path d="M 394.5 182.5  C 416.9 182.5  434.5 200.1  434.5 222.5  C 434.5 244.9  416.9 262.5  394.5 262.5  C 372.1 262.5  354.5 244.9  354.5 222.5  C 354.5 200.1  372.1 182.5  394.5 182.5  Z " stroke-width="1" stroke-dasharray="9,4" stroke="#6ba3fd" fill="none" stroke-dashoffset="0.5" />
  </g>
</svg>