<?xml version="1.0" encoding="utf-8"?>
<svg version="1.1" xmlns:xlink="http://www.w3.org/1999/xlink" width="102px" height="102px" xmlns="http://www.w3.org/2000/svg">
  <g transform="matrix(1 0 0 1 -58 -111 )">
    <path d="M 109 111.5  C 137.28 111.5  159.5 133.72  159.5 162  C 159.5 190.28  137.28 212.5  109 212.5  C 80.72 212.5  58.5 190.28  58.5 162  C 58.5 133.72  80.72 111.5  109 111.5  Z " fill-rule="nonzero" fill="#000000" stroke="none" />
    <path d="M 109 111.5  C 137.28 111.5  159.5 133.72  159.5 162  C 159.5 190.28  137.28 212.5  109 212.5  C 80.72 212.5  58.5 190.28  58.5 162  C 58.5 133.72  80.72 111.5  109 111.5  Z " stroke-width="1" stroke-dasharray="9,4" stroke="#20a17c" fill="none" stroke-opacity="0.6" stroke-dashoffset="0.5" />
  </g>
</svg>