<?xml version="1.0" encoding="utf-8"?>
<svg version="1.1" xmlns:xlink="http://www.w3.org/1999/xlink" width="81px" height="81px" xmlns="http://www.w3.org/2000/svg">
  <g transform="matrix(1 0 0 1 -224 -180 )">
    <path d="M 264.5 180.5  C 286.9 180.5  304.5 198.1  304.5 220.5  C 304.5 242.9  286.9 260.5  264.5 260.5  C 242.1 260.5  224.5 242.9  224.5 220.5  C 224.5 198.1  242.1 180.5  264.5 180.5  Z " fill-rule="nonzero" fill="#000000" stroke="none" />
    <path d="M 264.5 180.5  C 286.9 180.5  304.5 198.1  304.5 220.5  C 304.5 242.9  286.9 260.5  264.5 260.5  C 242.1 260.5  224.5 242.9  224.5 220.5  C 224.5 198.1  242.1 180.5  264.5 180.5  Z " stroke-width="1" stroke-dasharray="9,4" stroke="#0000ff" fill="none" stroke-dashoffset="0.5" />
  </g>
</svg>