<?xml version="1.0" encoding="utf-8"?>
<svg version="1.1" xmlns:xlink="http://www.w3.org/1999/xlink" width="50px" height="215px" xmlns="http://www.w3.org/2000/svg">
  <g transform="matrix(1 0 0 1 -195 -55 )">
    <path d="M 196.5 265  C 196.5 265  196.5 67.4046269627427  196.5 67.4046269627427  C 196.5 65.4716303383349  198.067003375592 63.9046269627427  200 63.9046269627427  C 200 63.9046269627427  211.496535027527 63.9046269627427  211.496535027527 63.9046269627427  C 211.496535027527 63.9046269627427  220.701841296692 57.0603080617996  220.701841296692 57.0603080617996  C 220.701841296692 57.0603080617996  230.529127719174 63.9046269627427  230.529127719174 63.9046269627427  C 230.529127719174 63.9046269627427  240 63.9046269627427  240 63.9046269627427  C 241.932996624408 63.9046269627427  243.5 65.4716303383349  243.5 67.4046269627427  C 243.5 67.4046269627427  243.5 265  243.5 265  C 243.5 266.932996624408  241.932996624408 268.5  240 268.5  C 240 268.5  200 268.5  200 268.5  C 198.067003375592 268.5  196.5 266.932996624408  196.5 265  Z " fill-rule="nonzero" fill="#8d803a" stroke="none" />
    <path d="M 195 265  C 195 265  195 67.4046269627427  195 67.4046269627427  C 195 64.6432032135887  197.238576250846 62.4046269627427  200 62.4046269627427  C 200 62.4046269627427  210.999999999998 62.4046269627427  210.999999999998 62.4046269627427  C 210.999999999998 62.4046269627427  220.673202614379 55.2124183006542  220.673202614379 55.2124183006542  C 220.673202614379 55.2124183006542  230.999999999998 62.4046269627427  230.999999999998 62.4046269627427  C 230.999999999998 62.4046269627427  240 62.4046269627427  240 62.4046269627427  C 242.761423749154 62.4046269627427  245 64.6432032135887  245 67.4046269627427  C 245 67.4046269627427  245 265  245 265  C 245 267.761423749154  242.761423749154 270  240 270  C 240 270  200 270  200 270  C 197.238576250846 270  195 267.761423749154  195 265  Z M 197 265  C 197 266.656854249492  198.343145750508 268  200 268  C 200 268  240 268  240 268  C 241.656854249492 268  243 266.656854249492  243 265  C 243 265  243 67.4046269627427  243 67.4046269627427  C 243 65.7477727132503  241.656854249492 64.4046269627427  240 64.4046269627427  C 240 64.4046269627427  230.372170292232 64.4046269627427  230.372170292232 64.4046269627427  C 230.372170292232 64.4046269627427  220.711387524129 57.6762713155147  220.711387524129 57.6762713155147  C 220.711387524129 57.6762713155147  211.66204670337 64.4046269627427  211.66204670337 64.4046269627427  C 211.66204670337 64.4046269627427  200 64.4046269627427  200 64.4046269627427  C 198.343145750508 64.4046269627427  197 65.7477727132503  197 67.4046269627427  C 197 67.4046269627427  197 265  197 265  Z " fill-rule="nonzero" fill="#ffffff" stroke="none" />
  </g>
</svg>