<?xml version="1.0" encoding="utf-8"?>
<svg version="1.1" xmlns:xlink="http://www.w3.org/1999/xlink" width="81px" height="81px" xmlns="http://www.w3.org/2000/svg">
  <g transform="matrix(1 0 0 1 -354 -58 )">
    <path d="M 394.5 58.5  C 416.9 58.5  434.5 76.1  434.5 98.5  C 434.5 120.9  416.9 138.5  394.5 138.5  C 372.1 138.5  354.5 120.9  354.5 98.5  C 354.5 76.1  372.1 58.5  394.5 58.5  Z " fill-rule="nonzero" fill="#000000" stroke="none" />
    <path d="M 394.5 58.5  C 416.9 58.5  434.5 76.1  434.5 98.5  C 434.5 120.9  416.9 138.5  394.5 138.5  C 372.1 138.5  354.5 120.9  354.5 98.5  C 354.5 76.1  372.1 58.5  394.5 58.5  Z " stroke-width="1" stroke-dasharray="9,4" stroke="#d9001b" fill="none" stroke-opacity="0.596078431372549" stroke-dashoffset="0.5" />
  </g>
</svg>