<?xml version="1.0" encoding="utf-8"?>
<svg version="1.1" xmlns:xlink="http://www.w3.org/1999/xlink" width="183px" height="184px" xmlns="http://www.w3.org/2000/svg">
  <g transform="matrix(1 0 0 1 -44 -224 )">
    <path d="M 98.5221585056538 12.7591595737172  C 98.5221585056538 12.7591595737172  96.9255665435936 12.5988018298281  95.6521185879627 12.0663183503517  C 93.3811260141163 11.2441515091853  91.7961165048544 9.0920162394921  91.7961165048544 6.508038585209  C 91.7961165048544 3.19485530546629  94.4019417475728 0.591639871382637  97.7184466019418 0.591639871382637  C 97.8565748648397 0.591639871382637  97.9934703701564 0.596155455492999  98.1289961678005 0.605050361297486  C 98.6060563777404 0.567067732098911  98.9248471772743 0.591639871382637  98.9248471772743 0.591639871382637  C 146.167671725953 4.92981296742846  183 44.9013491254472  183 92.2958199356913  C 183 142.942640080946  141.901478734468 184  91.2038834951456 184  C 45.2336695829888 184  6.42458524942224 150.047387383196  0.247464903766608 104.672181515677  C 0.0862953129960505 104.127684796096  0 103.548266965488  0 102.945337620579  C 0 99.6321543408361  2.60582524271843 97.0289389067524  5.92233009708738 97.0289389067524  C 8.90766387075372 97.0289389067524  11.3171622308789 99.1382207989699  11.7685878636322 101.975943582548  L 11.8407118218213 101.967154431232  C 16.7340420462631 142.041531825391  50.7919785089081 172.167202572347  91.2038834951456 172.167202572347  C 135.359853542297 172.167202572347  171.155339805825 136.407566513817  171.155339805825 92.2958199356913  C 171.155339805825 50.8981198759204  139.530998248225 16.5057804547194  98.5221585056538 12.7591595737172  Z " fill-rule="nonzero" fill="#5292d7" stroke="none" transform="matrix(1 0 0 1 44 224 )" />
  </g>
</svg>