<?xml version="1.0" encoding="utf-8"?>
<svg version="1.1" xmlns:xlink="http://www.w3.org/1999/xlink" width="119px" height="136px" xmlns="http://www.w3.org/2000/svg">
  <g transform="matrix(1 0 0 1 -85 -249 )">
    <path d="M 50.9154228855721 136  C 32.9673725240175 136  15.7740676603951 128.892423842793  3.04899449461219 116.272258110387  C 1.21831360505958 115.272289571631  0 113.33118093482  0 111.056768558952  C 0 107.731004366812  2.6049751243781 105.117903930131  5.92039800995025 105.117903930131  C 7.54774909287684 105.117903930131  9.00393445134547 105.747469189896  10.0649129011751 106.781859720621  L 10.21286494818 106.640324427821  C 20.7755750740726 117.752582534707  35.4661893591872 124.122270742358  50.9154228855721 124.122270742358  C 81.9780054569011 124.122270742358  107.1592039801 98.8625282437286  107.1592039801 67.703056768559  C 107.1592039801 39.1146273945021  85.9620856518454 15.4924927385121  58.4735968812634 11.7888952318506  C 58.1348703951037 11.8473227687439  57.7854989923594 11.8777292576419  57.4278606965174 11.8777292576419  C 54.1124378109453 11.8777292576419  51.5074626865672 9.26462882096065  51.5074626865672 5.93886462882096  C 51.5074626865672 2.61310043668128  54.1124378109453 0  57.4693053521119 0.000136232635338779  L 57.9843781094541 0.000136232635338779  C 92.8735591460072 3.39863459221943  119 32.5404318273907  119 67.703056768559  C 119 105.422416975343  88.5174965245493 136  50.9154228855721 136  Z " fill-rule="nonzero" fill="#d4ab63" stroke="none" transform="matrix(1 0 0 1 85 249 )" />
  </g>
</svg>