<?xml version="1.0" encoding="utf-8"?>
<svg version="1.1" xmlns:xlink="http://www.w3.org/1999/xlink" width="231px" height="231px" xmlns="http://www.w3.org/2000/svg">
  <g transform="matrix(1 0 0 1 -20 -201 )">
    <path d="M 219.153846153846 115.5  C 219.153846153846 61.3814028814875  177.550072051544 16.4880295855961  123.815825436996 12.1692862684235  L 122.015384615385 12.1692862684235  C 118.698461538462 12.1692862684235  116.092307692308 9.83230769230764  116.092307692308 6.51538461538462  C 116.092307692308 3.19846153846159  118.698461538462 0.22214976712208  122.015384615385 0.22214976712208  C 122.224992310297 0.22214976712208  122.660114921297 0.22214976712208  122.660114921297 0.22214976712208  C 183.551305460473 4.00421129129449  231 54.4914671980153  231 115.5  C 231 179.288888605457  179.288888605457 231  115.5 231  C 51.7111113945434 231  0 179.288888605457  0 115.5  C 0 80.4116062262923  15.9489529916974 47.2482710272645  43.3062455592349 25.3428339846593  C 44.3826140931651 23.9693285164983  46.0612237873397 23.1  47.9769230769231 23.1  C 51.2938461538462 23.1  53.9 25.7061538461539  53.9 29.0230769230769  C 53.9 31.03368097949  52.9424039225284 32.7831224693199  51.4493479253943 33.8492226247206  L 51.5243769574038 33.9448684704828  C 26.4758359937733 53.5941043236096  11.8461538461538 83.6641416949617  11.8461538461538 115.5  C 11.8461538461538 172.746438492077  58.2535615079236 219.153846153846  115.5 219.153846153846  C 172.746438492077 219.153846153846  219.153846153846 172.746438492077  219.153846153846 115.5  Z " fill-rule="nonzero" fill="#38af6f" stroke="none" transform="matrix(1 0 0 1 20 201 )" />
  </g>
</svg>