<?xml version="1.0" encoding="utf-8"?>
<svg version="1.1" xmlns:xlink="http://www.w3.org/1999/xlink" width="44px" height="84px" xmlns="http://www.w3.org/2000/svg">
  <g transform="matrix(1 0 0 1 -136 -272 )">
    <path d="M 20.5576563698263 83.4240135501194  L 20.5324899073925 83.3775434577966  C 19.7273834145076 83.77665379492  18.8132237160582 84  17.8378378378378 84  C 14.5081081081081 84  11.8918918918919 81.3971830985915  11.8918918918919 78.0845070422535  C 11.8918918918919 75.4808284097247  13.5080745926656 73.3156693762534  15.8166012599774 72.5081370853459  C 25.8783363744087 66.7021249081964  32.1081081081081 55.98979745171  32.1081081081081 44.3661971830986  C 32.1081081081081 28.6993483426637  20.899551534362 15.3216158520725  5.54399128165553 12.4097876158323  C 2.40806668738627 12.2099899140203  0 9.68520700731268  0 6.50704225352113  C 0 3.19436619718315  2.6162162162162 0.591549295774648  5.94594594594595 0.591549295774648  C 5.99874143681721 0.591549295774648  6.05135754608592 0.592203659648642  6.10378664676321 0.593506456440985  L 6.11727110200649 0.505388018909074  C 27.9033267822894 3.80516962529457  44 22.4419767592632  44 44.3661971830986  C 44 60.6837045732925  34.9967385198158 75.684241172572  20.5576563698263 83.4240135501194  Z " fill-rule="nonzero" fill="#d45159" stroke="none" transform="matrix(1 0 0 1 136 272 )" />
  </g>
</svg>