<?xml version="1.0" encoding="utf-8"?>
<svg version="1.1" xmlns:xlink="http://www.w3.org/1999/xlink" width="184px" height="184px" xmlns="http://www.w3.org/2000/svg">
  <g transform="matrix(1 0 0 1 -44 -225 )">
    <path d="M 136 244  C 176.88 244  209 276.12  209 317  C 209 357.88  176.88 390  136 390  C 95.12 390  63 357.88  63 317  C 63 276.12  95.12 244  136 244  Z " fill-rule="nonzero" fill="#000000" stroke="none" />
    <path d="M 136 235  C 181.92 235  218 271.08  218 317  C 218 362.92  181.92 399  136 399  C 90.08 399  54 362.92  54 317  C 54 271.08  90.08 235  136 235  Z " stroke-width="20" stroke="#282a28" fill="none" />
  </g>
</svg>