<?xml version="1.0" encoding="utf-8"?>
<svg version="1.1" xmlns:xlink="http://www.w3.org/1999/xlink" width="196px" height="12px" xmlns="http://www.w3.org/2000/svg">
  <g transform="matrix(1 0 0 1 -224 -99 )">
    <path d="M 225 102  A 2 2 0 0 1 227 100 L 417 100  A 2 2 0 0 1 419 102 L 419 108  A 2 2 0 0 1 417 110 L 227 110  A 2 2 0 0 1 225 108 L 225 102  Z " fill-rule="nonzero" fill="#ffffff" stroke="none" fill-opacity="0" />
    <path d="M 224.5 102  A 2.5 2.5 0 0 1 227 99.5 L 417 99.5  A 2.5 2.5 0 0 1 419.5 102 L 419.5 108  A 2.5 2.5 0 0 1 417 110.5 L 227 110.5  A 2.5 2.5 0 0 1 224.5 108 L 224.5 102  Z " stroke-width="1" stroke="#92edf6" fill="none" stroke-opacity="0.368627450980392" />
  </g>
</svg>