<?xml version="1.0" encoding="utf-8"?>
<svg version="1.1" xmlns:xlink="http://www.w3.org/1999/xlink" width="50px" height="29px" xmlns="http://www.w3.org/2000/svg">
  <g transform="matrix(1 0 0 1 -100 -342 )">
    <path d="M 101 345  A 2 2 0 0 1 103 343 L 147 343  A 2 2 0 0 1 149 345 L 149 368  A 2 2 0 0 1 147 370 L 103 370  A 2 2 0 0 1 101 368 L 101 345  Z " fill-rule="nonzero" fill="#ffffff" stroke="none" />
    <path d="M 100.5 345  A 2.5 2.5 0 0 1 103 342.5 L 147 342.5  A 2.5 2.5 0 0 1 149.5 345 L 149.5 368  A 2.5 2.5 0 0 1 147 370.5 L 103 370.5  A 2.5 2.5 0 0 1 100.5 368 L 100.5 345  Z " stroke-width="1" stroke="#ff0303" fill="none" stroke-opacity="0.996078431372549" />
  </g>
</svg>