<?xml version="1.0" encoding="utf-8"?>
<svg version="1.1" xmlns:xlink="http://www.w3.org/1999/xlink" width="50px" height="29px" xmlns="http://www.w3.org/2000/svg">
  <g transform="matrix(1 0 0 1 -100 -288 )">
    <path d="M 101 291  A 2 2 0 0 1 103 289 L 147 289  A 2 2 0 0 1 149 291 L 149 314  A 2 2 0 0 1 147 316 L 103 316  A 2 2 0 0 1 101 314 L 101 291  Z " fill-rule="nonzero" fill="#ffffff" stroke="none" />
    <path d="M 100.5 291  A 2.5 2.5 0 0 1 103 288.5 L 147 288.5  A 2.5 2.5 0 0 1 149.5 291 L 149.5 314  A 2.5 2.5 0 0 1 147 316.5 L 103 316.5  A 2.5 2.5 0 0 1 100.5 314 L 100.5 291  Z " stroke-width="1" stroke="#f59a23" fill="none" stroke-opacity="0.996078431372549" />
  </g>
</svg>