<?xml version="1.0" encoding="utf-8"?>
<svg version="1.1" xmlns:xlink="http://www.w3.org/1999/xlink" width="220px" height="30px" xmlns="http://www.w3.org/2000/svg">
  <g transform="matrix(1 0 0 1 -1272 -19 )">
    <path d="M 1273 34  A 14 14 0 0 1 1287 20 L 1477 20  A 14 14 0 0 1 1491 34 A 14 14 0 0 1 1477 48 L 1287 48  A 14 14 0 0 1 1273 34 Z " fill-rule="nonzero" fill="#1086e8" stroke="none" />
    <path d="M 1272.5 34  A 14.5 14.5 0 0 1 1287 19.5 L 1477 19.5  A 14.5 14.5 0 0 1 1491.5 34 A 14.5 14.5 0 0 1 1477 48.5 L 1287 48.5  A 14.5 14.5 0 0 1 1272.5 34 Z " stroke-width="1" stroke="#ffffff" fill="none" stroke-opacity="0.917647058823529" />
  </g>
</svg>