<?xml version="1.0" encoding="utf-8"?>
<svg version="1.1" xmlns:xlink="http://www.w3.org/1999/xlink" width="54px" height="54px" xmlns="http://www.w3.org/2000/svg">
  <g transform="matrix(1 0 0 1 -644 -85 )">
    <path d="M 671 85  C 686.12 85  698 96.88  698 112  C 698 127.12  686.12 139  671 139  C 655.88 139  644 127.12  644 112  C 644 96.88  655.88 85  671 85  Z " fill-rule="nonzero" fill="#ffffff" stroke="none" />
    <path d="M 671 85.5  C 685.84 85.5  697.5 97.16  697.5 112  C 697.5 126.84  685.84 138.5  671 138.5  C 656.16 138.5  644.5 126.84  644.5 112  C 644.5 97.16  656.16 85.5  671 85.5  Z " stroke-width="1" stroke="#d7d7d7" fill="none" />
  </g>
</svg>