<?xml version="1.0" encoding="utf-8"?>
<svg version="1.1" xmlns:xlink="http://www.w3.org/1999/xlink" width="54px" height="54px" xmlns="http://www.w3.org/2000/svg">
  <g transform="matrix(1 0 0 1 -82 -85 )">
    <path d="M 109 85  C 124.12 85  136 96.88  136 112  C 136 127.12  124.12 139  109 139  C 93.88 139  82 127.12  82 112  C 82 96.88  93.88 85  109 85  Z " fill-rule="nonzero" fill="#1f85ec" stroke="none" />
    <path d="M 109 85.5  C 123.84 85.5  135.5 97.16  135.5 112  C 135.5 126.84  123.84 138.5  109 138.5  C 94.16 138.5  82.5 126.84  82.5 112  C 82.5 97.16  94.16 85.5  109 85.5  Z " stroke-width="1" stroke="#1f85ec" fill="none" />
  </g>
</svg>