<?xml version="1.0" encoding="utf-8"?>
<svg version="1.1" xmlns:xlink="http://www.w3.org/1999/xlink" width="25px" height="25px" xmlns="http://www.w3.org/2000/svg">
  <g transform="matrix(1 0 0 1 -1211 -249 )">
    <path d="M 15.8454020996094 18.356140965053  C 15.8454020734514 18.8195927559989  15.4719409179687 19.1975534667969  15.0084891270229 19.1975534667969  C 14.545037336077 19.1975534667969  14.1715761544364 18.8240923113142  14.1715761544364 18.3606404942104  L 14.1715761544364 9.15009839739118  C 14.1715761544364 8.68664660644531  14.5450373099191 8.31318542480469  15.0084891270229 8.31318542480469  C 15.4719409441267 8.31318542480469  15.8454020996094 8.68664658028739  15.8454020996094 9.15009839739118  L 15.8454020996094 18.356140965053  Z M 10.8239243425642 18.356140965053  C 10.8239243164063 18.8195927559989  10.4504631609235 19.1975534667969  9.98701134381975 19.1975534667969  C 9.52355955287388 19.1975534667969  9.15009837123326 18.8240923113142  9.15009837123326 18.3606404942104  L 9.15009839739118 9.15009839739118  C 9.15009839739118 8.68664660644531  9.52355955287388 8.31318542480469  9.98701136997768 8.31318542480469  C 10.4504631609235 8.31318542480469  10.8239243425642 8.68664658028739  10.8239243425642 9.15009839739118  L 10.8239243425642 18.356140965053  Z M 24.2190312238421 5.80244655936105  C 24.2190312238421 5.33899474225725  23.8455700683594 4.96553358677455  23.3821182512556 4.96553358677455  L 19.197553440639 4.96553358677455  L 19.1975534667969 3.29170766775949  C 19.1975534667969 1.90585179792132  18.0816695295061 0.780968776157924  16.7048127179827 0.780968776157924  L 8.31318542480469 0.780968776157924  C 6.92732955496652 0.780968776157924  5.80244653320313 1.90585179792132  5.80244653320313 3.29170766775949  L 5.80244653320313 4.96553358677455  L 1.6178817225865 4.96553358677455  C 1.15442993164063 4.96553358677455  0.780968750000001 5.33899474225725  0.780968750000001 5.80244655936105  C 0.780968750000001 6.26589837646484  1.1544299054827 6.63935953194754  1.6178817225865 7  L 23.3821182512556 7  C 23.8455700422015 6.63935953194754  24.2190312238421 6.26589837646484  24.2190312238421 5.80244655936105  Z M 7.47627247837612 3.29170766775949  C 7.47627247837612 2.83275540597098  7.85423316301618 2.45479469517299  8.31318545096261 2.45479469517299  L 16.7048127179827 2.45479469517299  C 17.1637649797712 2.45479469517299  17.5237275477818 2.82375632149833  17.5237275477818 3.29170766775949  L 17.5237275477818 5  L 7.47627247837612 5  L 7.47627247837612 3.29170766775949  Z M 20.8758789411272 21.7082923322405  C 20.8713793858119 23.0896486729213  19.7464963640486 24.2190312238421  18.3606404942104 24  L 6.64385903494699 24  C 5.25800316510882 24.2190312238421  4.13312014334542 23.0941482020787  4.13312014334542 21.7082923322405  L 4.13312014334542 9.14109931291853  C 4.13312014334542 8.67764752197266  4.50658129882813 8.30418634033203  4.97003311593192 8.30418634033203  C 5.43348493303571 8.30418634033203  5.80694608851841 8.67764749581473  6 9.14109931291853  L 6 21.7082923322405  C 5.80694608851841 22.1717441231864  6.18490677315848 22.545205304827  6.64385906110491 22.545205304827  L 18.3651400495257 22.545205304827  C 18.8285918404715 22.545205304827  19.2020530221122 22.1717441493443  19 21.7082923322405  L 19 9.17259604317801  C 19.2020529959542 8.70914425223214  19.5755141514369 8.33568307059152  20.0389659685407 8.33568307059152  C 20.5024177856445 8.33568307059152  20.8758789411272 8.70914422607422  20.8758789411272 9.17259604317801  L 20.8758789411272 21.7082923322405  Z " fill-rule="nonzero" fill="#ff0303" stroke="none" fill-opacity="0.996078431372549" transform="matrix(1 0 0 1 1211 249 )" />
  </g>
</svg>