<?xml version="1.0" encoding="utf-8"?>
<svg version="1.1" xmlns:xlink="http://www.w3.org/1999/xlink" width="98px" height="40px" xmlns="http://www.w3.org/2000/svg">
  <defs>
    <mask fill="white" id="clip7">
      <path d="M 0 38  L 0 2  C 0 0.879999999999995  0.60307692307692 0  1.37062937062937 0  L 96.6293706293706 0  C 97.3969230769231 0  98 0.879999999999995  98 2  L 98 38  C 98 39.12  97.3969230769231 40  96.6293706293706 40  L 72.4852071005936 40  L 1.37062937062937 40  C 0.60307692307692 40  0 39.12  0 38  Z " fill-rule="evenodd" />
    </mask>
  </defs>
  <g transform="matrix(1 0 0 1 -176 -300 )">
    <path d="M 0 38  L 0 2  C 0 0.879999999999995  0.60307692307692 0  1.37062937062937 0  L 96.6293706293706 0  C 97.3969230769231 0  98 0.879999999999995  98 2  L 98 38  C 98 39.12  97.3969230769231 40  96.6293706293706 40  L 72.4852071005936 40  L 1.37062937062937 40  C 0.60307692307692 40  0 39.12  0 38  Z " fill-rule="nonzero" fill="#1086e8" stroke="none" transform="matrix(1 0 0 1 176 300 )" />
    <path d="M 0 38  L 0 2  C 0 0.879999999999995  0.60307692307692 0  1.37062937062937 0  L 96.6293706293706 0  C 97.3969230769231 0  98 0.879999999999995  98 2  L 98 38  C 98 39.12  97.3969230769231 40  96.6293706293706 40  L 72.4852071005936 40  L 1.37062937062937 40  C 0.60307692307692 40  0 39.12  0 38  Z " stroke-width="2" stroke="#1086e8" fill="none" transform="matrix(1 0 0 1 176 300 )" mask="url(#clip7)" />
  </g>
</svg>