<?xml version="1.0" encoding="utf-8"?>
<svg version="1.1" xmlns:xlink="http://www.w3.org/1999/xlink" width="14px" height="22px" xmlns="http://www.w3.org/2000/svg">
  <g transform="matrix(1 0 0 1 -268 -6 )">
    <path d="M 3.677734375 10.3571428571428  L 13.384765625 0.214285714285722  C 13.5579427083333 0.0333333333333599  13.7037760416667 -0.0285714285714107  13.822265625 0.0285714285714107  C 13.9407552083333 0.085714285714289  14 0.238095238095241  14 0.485714285714266  L 14 21.5142857142857  C 14 21.7619047619048  13.9407552083333 21.9142857142857  13.822265625 21.9714285714286  C 13.7037760416667 22.0285714285714  13.5579427083333 21.9666666666667  13.384765625 21.7857142857143  L 3.677734375 11.6428571428572  C 3.595703125 11.5571428571429  3.53645833333331 11.4666666666666  3.5 11.3714285714286  L 3.5 21.0571428571429  C 3.5 21.3047619047619  3.41341145833331 21.5190476190476  3.240234375 21.7  C 3.06705729166669 21.8809523809524  2.86197916666669 21.9714285714286  2.625 21.9714285714286  L 0.875 21.9714285714286  C 0.638020833333314 21.9714285714286  0.432942708333314 21.8809523809524  0.259765625 21.7  C 0.0865885416666856 21.5190476190476  0 21.3047619047619  0 21.0571428571429  L 0 0.942857142857122  C 0 0.695238095238096  0.0865885416666856 0.480952380952374  0.259765625 0.300000000000011  C 0.432942708333314 0.119047619047592  0.638020833333314 0.0285714285714107  0.875 0.0285714285714107  L 2.625 0.0285714285714107  C 2.86197916666669 0.0285714285714107  3.06705729166669 0.119047619047592  3.240234375 0.300000000000011  C 3.41341145833331 0.480952380952374  3.5 0.695238095238096  3.5 0.942857142857122  L 3.5 10.6285714285714  C 3.53645833333331 10.5333333333334  3.595703125 10.4428571428571  3.677734375 10.3571428571428  Z " fill-rule="nonzero" fill="#000000" stroke="none" transform="matrix(1 0 0 1 268 6 )" />
  </g>
</svg>