<?xml version="1.0" encoding="utf-8"?>
<svg version="1.1" xmlns:xlink="http://www.w3.org/1999/xlink" width="14px" height="22px" xmlns="http://www.w3.org/2000/svg">
  <g transform="matrix(1 0 0 1 -339 -6 )">
    <path d="M 10.322265625 11.6428571428572  L 0.615234375 21.7857142857143  C 0.442057291666629 21.9666666666667  0.296223958333371 22.0285714285714  0.177734375 21.9714285714286  C 0.0592447916666288 21.9142857142857  0 21.7619047619048  0 21.5142857142857  L 0 0.485714285714266  C 0 0.238095238095241  0.0592447916666288 0.085714285714289  0.177734375 0.0285714285714107  C 0.296223958333371 -0.0285714285714107  0.442057291666629 0.0333333333333599  0.615234375 0.214285714285722  L 10.322265625 10.3571428571428  C 10.404296875 10.4428571428571  10.4635416666666 10.5333333333334  10.5 10.6285714285714  L 10.5 0.942857142857122  C 10.5 0.695238095238096  10.5865885416666 0.480952380952374  10.759765625 0.300000000000011  C 10.9329427083334 0.119047619047592  11.1380208333334 0.0285714285714107  11.375 0.0285714285714107  L 13.125 0.0285714285714107  C 13.3619791666666 0.0285714285714107  13.5670572916666 0.119047619047592  13.740234375 0.300000000000011  C 13.9134114583334 0.480952380952374  14 0.695238095238096  14 0.942857142857122  L 14 21.0571428571429  C 14 21.3047619047619  13.9134114583334 21.5190476190476  13.740234375 21.7  C 13.5670572916666 21.8809523809524  13.3619791666666 21.9714285714286  13.125 21.9714285714286  L 11.375 21.9714285714286  C 11.1380208333334 21.9714285714286  10.9329427083334 21.8809523809524  10.759765625 21.7  C 10.5865885416666 21.5190476190476  10.5 21.3047619047619  10.5 21.0571428571429  L 10.5 11.3714285714286  C 10.4635416666666 11.4666666666666  10.404296875 11.5571428571429  10.322265625 11.6428571428572  Z " fill-rule="nonzero" fill="#000000" stroke="none" transform="matrix(1 0 0 1 339 6 )" />
  </g>
</svg>