<?xml version="1.0" encoding="utf-8"?>
<svg version="1.1" xmlns:xlink="http://www.w3.org/1999/xlink" width="33px" height="28px" xmlns="http://www.w3.org/2000/svg">
  <g transform="matrix(1 0 0 1 -359 -3 )">
    <path d="M 360 9  A 5 5 0 0 1 365 4 L 386 4  A 5 5 0 0 1 391 9 L 391 25  A 5 5 0 0 1 386 30 L 365 30  A 5 5 0 0 1 360 25 L 360 9  Z " fill-rule="nonzero" fill="#000000" stroke="none" />
    <path d="M 359.5 9  A 5.5 5.5 0 0 1 365 3.5 L 386 3.5  A 5.5 5.5 0 0 1 391.5 9 L 391.5 25  A 5.5 5.5 0 0 1 386 30.5 L 365 30.5  A 5.5 5.5 0 0 1 359.5 25 L 359.5 9  Z " stroke-width="1" stroke="#aaaaaa" fill="none" stroke-opacity="0.8" />
  </g>
</svg>