<?xml version="1.0" encoding="utf-8"?>
<svg version="1.1" xmlns:xlink="http://www.w3.org/1999/xlink" width="22px" height="22px" xmlns="http://www.w3.org/2000/svg">
  <g transform="matrix(1 0 0 1 -313 -6 )">
    <path d="M 21.7278645833334 0.272135416666686  C 21.9092881944445 0.453559027777771  22 0.668402777777771  22 0.916666666666686  L 22 21.0833333333333  C 22 21.3315972222222  21.9092881944445 21.5464409722222  21.7278645833334 21.7278645833333  C 21.5464409722222 21.9092881944445  21.3315972222222 22  21.0833333333334 22  L 13.75 22  C 13.5017361111111 22  13.2868923611111 21.9092881944445  13.10546875 21.7278645833333  C 12.9240451388889 21.5464409722222  12.8333333333334 21.3315972222222  12.8333333333334 21.0833333333333  L 12.8333333333334 0.916666666666686  C 12.8333333333334 0.668402777777771  12.9240451388889 0.453559027777771  13.10546875 0.272135416666686  C 13.2868923611111 0.0907118055555429  13.5017361111111 0  13.75 0  L 21.0833333333334 0  C 21.3315972222222 0  21.5464409722222 0.0907118055555429  21.7278645833334 0.272135416666686  Z M 8.89453125 0.272135416666686  C 9.07595486111109 0.453559027777771  9.16666666666663 0.668402777777771  9.16666666666663 0.916666666666686  L 9.16666666666663 21.0833333333333  C 9.16666666666663 21.3315972222222  9.07595486111109 21.5464409722222  8.89453125 21.7278645833333  C 8.71310763888891 21.9092881944445  8.49826388888891 22  8.25 22  L 0.916666666666629 22  C 0.668402777777828 22  0.453559027777828 21.9092881944445  0.272135416666629 21.7278645833333  C 0.0907118055555429 21.5464409722222  0 21.3315972222222  0 21.0833333333333  L 0 0.916666666666686  C 0 0.668402777777771  0.0907118055555429 0.453559027777771  0.272135416666629 0.272135416666686  C 0.453559027777828 0.0907118055555429  0.668402777777828 0  0.916666666666629 0  L 8.25 0  C 8.49826388888891 0  8.71310763888891 0.0907118055555429  8.89453125 0.272135416666686  Z " fill-rule="nonzero" fill="#000000" stroke="none" transform="matrix(1 0 0 1 313 6 )" />
  </g>
</svg>