<?xml version="1.0" encoding="utf-8"?>
<svg version="1.1" xmlns:xlink="http://www.w3.org/1999/xlink" width="22px" height="19px" xmlns="http://www.w3.org/2000/svg">
  <g transform="matrix(1 0 0 1 -240 -8 )">
    <path d="M 12.7310267857143 8.94480519480521  L 21.4475446428572 0.185064935064929  C 21.6030505952381 0.0287878787878526  21.7340029761905 -0.0246753246753428  21.8404017857143 0.0246753246753428  C 21.9468005952381 0.0740259740259717  22 0.205627705627705  22 0.419480519480544  L 22 18.5805194805195  C 22 18.7943722943723  21.9468005952381 18.925974025974  21.8404017857143 18.9753246753247  C 21.7340029761905 19.0246753246753  21.6030505952381 18.9712121212121  21.4475446428572 18.8149350649351  L 12.7310267857143 10.0551948051948  C 12.6573660714286 9.98116883116882  12.6041666666667 9.90303030303028  12.5714285714286 9.82077922077923  L 12.5714285714286 18.5805194805195  C 12.5714285714286 18.7943722943723  12.5182291666667 18.925974025974  12.4118303571428 18.9753246753247  C 12.305431547619 19.0246753246753  12.1744791666667 18.9712121212121  12.0189732142857 18.8149350649351  L 3.30245535714283 10.0551948051948  C 3.22879464285717 9.98116883116882  3.17559523809524 9.90303030303028  3.14285714285717 9.82077922077923  L 3.14285714285717 18.1857142857143  C 3.14285714285717 18.3995670995671  3.06510416666669 18.584632034632  2.90959821428572 18.7409090909091  C 2.75409226190476 18.8971861471862  2.56994047619048 18.9753246753247  2.35714285714283 18.9753246753247  L 0.785714285714278 18.9753246753247  C 0.572916666666686 18.9753246753247  0.388764880952408 18.8971861471862  0.233258928571445 18.7409090909091  C 0.0777529761904816 18.584632034632  0 18.3995670995671  0 18.1857142857143  L 0 0.814285714285688  C 0 0.600432900432907  0.0777529761904816 0.415367965367977  0.233258928571445 0.259090909090901  C 0.388764880952408 0.102813852813824  0.572916666666686 0.0246753246753428  0.785714285714278 0.0246753246753428  L 2.35714285714283 0.0246753246753428  C 2.56994047619048 0.0246753246753428  2.75409226190476 0.102813852813824  2.90959821428572 0.259090909090901  C 3.06510416666669 0.415367965367977  3.14285714285717 0.600432900432907  3.14285714285717 0.814285714285688  L 3.14285714285717 9.17922077922077  C 3.17559523809524 9.09696969696972  3.22879464285717 9.01883116883118  3.30245535714283 8.94480519480521  L 12.0189732142857 0.185064935064929  C 12.1744791666667 0.0287878787878526  12.305431547619 -0.0246753246753428  12.4118303571428 0.0246753246753428  C 12.5182291666667 0.0740259740259717  12.5714285714286 0.205627705627705  12.5714285714286 0.419480519480544  L 12.5714285714286 9.17922077922077  C 12.6041666666667 9.09696969696972  12.6573660714286 9.01883116883118  12.7310267857143 8.94480519480521  Z " fill-rule="nonzero" fill="#000000" stroke="none" transform="matrix(1 0 0 1 240 8 )" />
  </g>
</svg>