<?xml version="1.0" encoding="utf-8"?>
<svg version="1.1" xmlns:xlink="http://www.w3.org/1999/xlink" width="29px" height="29px" xmlns="http://www.w3.org/2000/svg">
  <g transform="matrix(1 0 0 1 -670 -137 )">
    <path d="M 684.5 139  C 691.5 139  697 144.5  697 151.5  C 697 158.5  691.5 164  684.5 164  C 677.5 164  672 158.5  672 151.5  C 672 144.5  677.5 139  684.5 139  Z " fill-rule="nonzero" fill="#ffffff" stroke="none" />
    <path d="M 684.5 138.5  C 691.78 138.5  697.5 144.22  697.5 151.5  C 697.5 158.78  691.78 164.5  684.5 164.5  C 677.22 164.5  671.5 158.78  671.5 151.5  C 671.5 144.22  677.22 138.5  684.5 138.5  Z " stroke-width="3" stroke="#000000" fill="none" />
  </g>
</svg>