<?xml version="1.0" encoding="utf-8"?>
<svg version="1.1" xmlns:xlink="http://www.w3.org/1999/xlink" width="12px" height="12px" viewBox="180 138.5  12 12" xmlns="http://www.w3.org/2000/svg">
  <path d="M 186 139  C 189.08 139  191.5 141.42  191.5 144.5  C 191.5 147.58  189.08 150  186 150  C 182.92 150  180.5 147.58  180.5 144.5  C 180.5 141.42  182.92 139  186 139  Z " fill-rule="nonzero" fill="#f0f0f0" stroke="none" />
  <path d="M 186 139  C 189.08 139  191.5 141.42  191.5 144.5  C 191.5 147.58  189.08 150  186 150  C 182.92 150  180.5 147.58  180.5 144.5  C 180.5 141.42  182.92 139  186 139  Z " stroke-width="1" stroke="#aaaaaa" fill="none" stroke-opacity="0.8" />
  <path d="M 186 147.5  C 184.32 147.5  183 146.18  183 144.5  C 183 142.82  184.32 141.5  186 141.5  C 187.68 141.5  189 142.82  189 144.5  C 189 146.18  187.68 147.5  186 147.5  " fill-rule="nonzero" fill="#aaaaaa" stroke="none" fill-opacity="0.8" />
</svg>