<?xml version="1.0" encoding="utf-8"?>
<svg version="1.1" xmlns:xlink="http://www.w3.org/1999/xlink" width="200px" height="200px" xmlns="http://www.w3.org/2000/svg">
  <g transform="matrix(1 0 0 1 -876 -266 )">
    <path d="M 976 266.5  C 1031.72 266.5  1075.5 310.28  1075.5 366  C 1075.5 421.72  1031.72 465.5  976 465.5  C 920.28 465.5  876.5 421.72  876.5 366  C 876.5 310.28  920.28 266.5  976 266.5  Z " fill-rule="nonzero" fill="#f59a23" stroke="none" />
    <path d="M 976 266.5  C 1031.72 266.5  1075.5 310.28  1075.5 366  C 1075.5 421.72  1031.72 465.5  976 465.5  C 920.28 465.5  876.5 421.72  876.5 366  C 876.5 310.28  920.28 266.5  976 266.5  Z " stroke-width="1" stroke="#aaaaaa" fill="none" stroke-opacity="0.8" />
  </g>
</svg>