<?xml version="1.0" encoding="utf-8"?>
<svg version="1.1" xmlns:xlink="http://www.w3.org/1999/xlink" width="100px" height="100px" xmlns="http://www.w3.org/2000/svg">
  <g transform="matrix(1 0 0 1 -926 -316 )">
    <path d="M 976 316.5  C 1003.72 316.5  1025.5 338.28  1025.5 366  C 1025.5 393.72  1003.72 415.5  976 415.5  C 948.28 415.5  926.5 393.72  926.5 366  C 926.5 338.28  948.28 316.5  976 316.5  Z " fill-rule="nonzero" fill="#d9001b" stroke="none" />
    <path d="M 976 316.5  C 1003.72 316.5  1025.5 338.28  1025.5 366  C 1025.5 393.72  1003.72 415.5  976 415.5  C 948.28 415.5  926.5 393.72  926.5 366  C 926.5 338.28  948.28 316.5  976 316.5  Z " stroke-width="1" stroke="#aaaaaa" fill="none" stroke-opacity="0.8" />
  </g>
</svg>