<?xml version="1.0" encoding="utf-8"?>
<svg version="1.1" xmlns:xlink="http://www.w3.org/1999/xlink" width="12px" height="12px" viewBox="181 175.5  12 12" xmlns="http://www.w3.org/2000/svg">
  <path d="M 187 176  C 190.08 176  192.5 178.42  192.5 181.5  C 192.5 184.58  190.08 187  187 187  C 183.92 187  181.5 184.58  181.5 181.5  C 181.5 178.42  183.92 176  187 176  Z " fill-rule="nonzero" fill="#ffffff" stroke="none" />
  <path d="M 187 176  C 190.08 176  192.5 178.42  192.5 181.5  C 192.5 184.58  190.08 187  187 187  C 183.92 187  181.5 184.58  181.5 181.5  C 181.5 178.42  183.92 176  187 176  Z " stroke-width="1" stroke="#aaaaaa" fill="none" stroke-opacity="0.8" />
  <path d="M 187 184.5  C 185.32 184.5  184 183.18  184 181.5  C 184 179.82  185.32 178.5  187 178.5  C 188.68 178.5  190 179.82  190 181.5  C 190 183.18  188.68 184.5  187 184.5  " fill-rule="nonzero" fill="#aaaaaa" stroke="none" fill-opacity="0.8" />
</svg>