<?xml version="1.0" encoding="utf-8"?>
<svg version="1.1" xmlns:xlink="http://www.w3.org/1999/xlink" width="12px" height="12px" viewBox="177 89  12 12" xmlns="http://www.w3.org/2000/svg">
  <path d="M 183 89.5  C 186.08 89.5  188.5 91.92  188.5 95  C 188.5 98.08  186.08 100.5  183 100.5  C 179.92 100.5  177.5 98.08  177.5 95  C 177.5 91.92  179.92 89.5  183 89.5  Z " fill-rule="nonzero" fill="#f0f0f0" stroke="none" />
  <path d="M 183 89.5  C 186.08 89.5  188.5 91.92  188.5 95  C 188.5 98.08  186.08 100.5  183 100.5  C 179.92 100.5  177.5 98.08  177.5 95  C 177.5 91.92  179.92 89.5  183 89.5  Z " stroke-width="1" stroke="#aaaaaa" fill="none" stroke-opacity="0.8" />
  <path d="M 183 98  C 181.32 98  180 96.68  180 95  C 180 93.32  181.32 92  183 92  C 184.68 92  186 93.32  186 95  C 186 96.68  184.68 98  183 98  " fill-rule="nonzero" fill="#aaaaaa" stroke="none" fill-opacity="0.8" />
</svg>