<?xml version="1.0" encoding="utf-8"?>
<svg version="1.1" xmlns:xlink="http://www.w3.org/1999/xlink" width="12px" height="12px" viewBox="103 89  12 12" xmlns="http://www.w3.org/2000/svg">
  <path d="M 109 89.5  C 112.08 89.5  114.5 91.92  114.5 95  C 114.5 98.08  112.08 100.5  109 100.5  C 105.92 100.5  103.5 98.08  103.5 95  C 103.5 91.92  105.92 89.5  109 89.5  Z " fill-rule="nonzero" fill="#f0f0f0" stroke="none" />
  <path d="M 109 89.5  C 112.08 89.5  114.5 91.92  114.5 95  C 114.5 98.08  112.08 100.5  109 100.5  C 105.92 100.5  103.5 98.08  103.5 95  C 103.5 91.92  105.92 89.5  109 89.5  Z " stroke-width="1" stroke="#aaaaaa" fill="none" stroke-opacity="0.8" />
  <path d="M 109 98  C 107.32 98  106 96.68  106 95  C 106 93.32  107.32 92  109 92  C 110.68 92  112 93.32  112 95  C 112 96.68  110.68 98  109 98  " fill-rule="nonzero" fill="#aaaaaa" stroke="none" fill-opacity="0.8" />
</svg>