<?xml version="1.0" encoding="utf-8"?>
<svg version="1.1" xmlns:xlink="http://www.w3.org/1999/xlink" width="12px" height="12px" viewBox="247 89  12 12" xmlns="http://www.w3.org/2000/svg">
  <path d="M 253 89.5  C 256.08 89.5  258.5 91.92  258.5 95  C 258.5 98.08  256.08 100.5  253 100.5  C 249.92 100.5  247.5 98.08  247.5 95  C 247.5 91.92  249.92 89.5  253 89.5  Z " fill-rule="nonzero" fill="#ffffff" stroke="none" />
  <path d="M 253 89.5  C 256.08 89.5  258.5 91.92  258.5 95  C 258.5 98.08  256.08 100.5  253 100.5  C 249.92 100.5  247.5 98.08  247.5 95  C 247.5 91.92  249.92 89.5  253 89.5  Z " stroke-width="1" stroke="#aaaaaa" fill="none" stroke-opacity="0.8" />
  <path d="M 253 98  C 251.32 98  250 96.68  250 95  C 250 93.32  251.32 92  253 92  C 254.68 92  256 93.32  256 95  C 256 96.68  254.68 98  253 98  " fill-rule="nonzero" fill="#aaaaaa" stroke="none" fill-opacity="0.8" />
</svg>