<?xml version="1.0" encoding="utf-8"?>
<svg version="1.1" xmlns:xlink="http://www.w3.org/1999/xlink" width="20px" height="20px" viewBox="150 201  20 20" xmlns="http://www.w3.org/2000/svg">
  <path d="M 160 201.5  C 165.32 201.5  169.5 205.68  169.5 211  C 169.5 216.32  165.32 220.5  160 220.5  C 154.68 220.5  150.5 216.32  150.5 211  C 150.5 205.68  154.68 201.5  160 201.5  Z " fill-rule="nonzero" fill="#f0f0f0" stroke="none" />
  <path d="M 160 201.5  C 165.32 201.5  169.5 205.68  169.5 211  C 169.5 216.32  165.32 220.5  160 220.5  C 154.68 220.5  150.5 216.32  150.5 211  C 150.5 205.68  154.68 201.5  160 201.5  Z " stroke-width="1" stroke="#aaaaaa" fill="none" stroke-opacity="0.8" />
  <path d="M 160 216  C 157.2 216  155 213.8  155 211  C 155 208.2  157.2 206  160 206  C 162.8 206  165 208.2  165 211  C 165 213.8  162.8 216  160 216  " fill-rule="nonzero" fill="#aaaaaa" stroke="none" fill-opacity="0.8" />
</svg>