<?xml version="1.0" encoding="utf-8"?>
<svg version="1.1" xmlns:xlink="http://www.w3.org/1999/xlink" width="50px" height="29px" xmlns="http://www.w3.org/2000/svg">
  <g transform="matrix(1 0 0 1 -1430 -447 )">
    <path d="M 1.2451171875 20.130078125  C 0.4150390625 18.340234375  0 16.4635416666667  0 14.5  C 0 12.5364583333333  0.4150390625 10.659765625  1.2451171875 8.869921875  C 2.0751953125 7.080078125  3.18603515625 5.539453125  4.57763671875 4.248046875  C 5.96923828125 2.956640625  7.62939453125 1.92578125  9.55810546875 1.15546875  C 11.48681640625 0.385156250000001  13.5091145833333 0  15.625 0  L 34.375 0  C 36.4908854166667 0  38.51318359375 0.385156250000001  40.44189453125 1.15546875  C 42.37060546875 1.92578125  44.03076171875 2.956640625  45.42236328125 4.248046875  C 46.81396484375 5.539453125  47.9248046875 7.080078125  48.7548828125 8.869921875  C 49.5849609375 10.659765625  50 12.5364583333333  50 14.5  C 50 16.4635416666667  49.5849609375 18.340234375  48.7548828125 20.130078125  C 47.9248046875 21.919921875  46.81396484375 23.460546875  45.42236328125 24.751953125  C 44.03076171875 26.043359375  42.37060546875 27.07421875  40.44189453125 27.84453125  C 38.51318359375 28.61484375  36.4908854166667 29  34.375 29  L 15.625 29  C 13.5091145833333 29  11.48681640625 28.61484375  9.55810546875 27.84453125  C 7.62939453125 27.07421875  5.96923828125 26.043359375  4.57763671875 24.751953125  C 3.18603515625 23.460546875  2.0751953125 21.919921875  1.2451171875 20.130078125  Z M 29.52880859375 25.182421875  C 31.06689453125 25.794140625  32.6822916666667 26.1  34.375 26.1  C 36.0677083333333 26.1  37.68310546875 25.794140625  39.22119140625 25.182421875  C 40.75927734375 24.570703125  42.08984375 23.74375  43.212890625 22.7015625  C 44.3359375 21.659375  45.22705078125 20.424609375  45.88623046875 18.997265625  C 46.54541015625 17.569921875  46.875 16.0708333333333  46.875 14.5  C 46.875 12.9291666666667  46.54541015625 11.430078125  45.88623046875 10.002734375  C 45.22705078125 8.575390625  44.3359375 7.340625  43.212890625 6.2984375  C 42.08984375 5.25625  40.75927734375 4.429296875  39.22119140625 3.817578125  C 37.68310546875 3.205859375  36.0677083333333 2.9  34.375 2.9  C 32.6822916666667 2.9  31.06689453125 3.205859375  29.52880859375 3.817578125  C 27.99072265625 4.429296875  26.66015625 5.25625  25.537109375 6.2984375  C 24.4140625 7.340625  23.52294921875 8.575390625  22.86376953125 10.002734375  C 22.20458984375 11.430078125  21.875 12.9291666666667  21.875 14.5  C 21.875 16.0708333333333  22.20458984375 17.569921875  22.86376953125 18.997265625  C 23.52294921875 20.424609375  24.4140625 21.659375  25.537109375 22.7015625  C 26.66015625 23.74375  27.99072265625 24.570703125  29.52880859375 25.182421875  Z " fill-rule="nonzero" fill="#1f85ec" stroke="none" transform="matrix(1 0 0 1 1430 447 )" />
  </g>
</svg>