<?xml version="1.0" encoding="utf-8"?>
<svg version="1.1" xmlns:xlink="http://www.w3.org/1999/xlink" width="217px" height="29px" xmlns="http://www.w3.org/2000/svg">
  <g transform="matrix(1 0 0 1 -182 -83 )">
    <path d="M 183 97.5  A 13.5 13.5 0 0 1 196.5 84 L 384.5 84  A 13.5 13.5 0 0 1 398 97.5 A 13.5 13.5 0 0 1 384.5 111 L 196.5 111  A 13.5 13.5 0 0 1 183 97.5 Z " fill-rule="nonzero" fill="#ffffff" stroke="none" />
    <path d="M 182.5 97.5  A 14 14 0 0 1 196.5 83.5 L 384.5 83.5  A 14 14 0 0 1 398.5 97.5 A 14 14 0 0 1 384.5 111.5 L 196.5 111.5  A 14 14 0 0 1 182.5 97.5 Z " stroke-width="1" stroke="#aaaaaa" fill="none" stroke-opacity="0.8" />
  </g>
</svg>