<?xml version="1.0" encoding="utf-8"?>
<svg version="1.1" xmlns:xlink="http://www.w3.org/1999/xlink" width="56px" height="95px" xmlns="http://www.w3.org/2000/svg">
  <defs>
    <linearGradient gradientUnits="userSpaceOnUse" x1="4.73402061855708" y1="5.12883435582781" x2="34.2927835051555" y2="91.8527607361976" id="LinearGradient536">
      <stop id="Stop537" stop-color="#ff9140" offset="0" />
      <stop id="Stop538" stop-color="#ea9457" offset="1" />
    </linearGradient>
  </defs>
  <g transform="matrix(1 0 0 1 -225 -181 )">
    <path d="M 30.6075500641543 88.4357259461766  C 30.6296286571004 88.4191124913959  30.6516894571695 88.4024802994478  30.6737324492155 88.3858294008004  C 41.8894272463417 79.9136856492492  48.4948453608247 66.598609084724  48.4948453608247 52.4539877300614  C 48.4948453608247 27.6689389876549  28.592287023406 7.57668711656442  4.04123725965658 7.5661035546913  C 3.94606042577243 7.57311924614927  3.84980080709253 7.57668711656442  3.75257731958763 7.57668711656442  C 1.65113402061856 7.57668711656442  0 5.90981595092024  0 3.78834355828221  C 0 1.66687116564418  1.65113402061856 0  3.75257731958763 0  C 3.84980089911969 0  3.946060608002 0.00356787716947442  4.04123711340206 0.00116189501326422  C 3.8106806344842 0.000387300482476694  3.92595871434976 0  4.04123711340206 0  C 32.7372694757443 0  56 23.4844502389369  56 52.4539877300614  C 56 68.9761491420027  48.2891971717129 84.5299454628745  35.1951292070709 94.4333467641585  C 35.1610465071724 94.4591244411522  35.1269273348547 94.4848638358822  35.0847714670867 94.4997292108237  C 34.5328072445768 94.8187544868298  33.8888237235692 95  33.1958762886598 95  C 31.0944329896907 95  29.4432989690722 93.3331288343558  29.4432989690722 91.2116564417178  C 29.4432989690722 90.1091252069321  29.889252247114 89.1293768019155  30.6075500641543 88.4357259461766  Z M 4.04123711340206 7.57808923135248  C 3.94261003865731 7.57808923135248  3.84398323699456 7.5770184736439  4.04123711340206 7.57808923135248  Z " fill-rule="nonzero" fill="url(#LinearGradient536)" stroke="none" transform="matrix(1 0 0 1 225 181 )" />
  </g>
</svg>