<?xml version="1.0" encoding="utf-8"?>
<svg version="1.1" xmlns:xlink="http://www.w3.org/1999/xlink" width="80px" height="80px" xmlns="http://www.w3.org/2000/svg">
  <g transform="matrix(1 0 0 1 -63 -192 )">
    <path d="M 103 192.5  C 125.12 192.5  142.5 209.88  142.5 232  C 142.5 254.12  125.12 271.5  103 271.5  C 80.88 271.5  63.5 254.12  63.5 232  C 63.5 209.88  80.88 192.5  103 192.5  Z " fill-rule="nonzero" fill="#000000" stroke="none" />
    <path d="M 103 192.5  C 125.12 192.5  142.5 209.88  142.5 232  C 142.5 254.12  125.12 271.5  103 271.5  C 80.88 271.5  63.5 254.12  63.5 232  C 63.5 209.88  80.88 192.5  103 192.5  Z " stroke-width="1" stroke-dasharray="9,4" stroke="#f16e26" fill="none" stroke-opacity="0.596078431372549" stroke-dashoffset="0.5" />
  </g>
</svg>