<?xml version="1.0" encoding="utf-8"?>
<svg version="1.1" xmlns:xlink="http://www.w3.org/1999/xlink" width="40px" height="21px" xmlns="http://www.w3.org/2000/svg">
  <defs>
    <linearGradient gradientUnits="userSpaceOnUse" x1="10.7020741126443" y1="2.62994011976099" x2="37.0840926841968" y2="17.5760479041917" id="LinearGradient533">
      <stop id="Stop534" stop-color="#b52c35" offset="0" />
      <stop id="Stop535" stop-color="#ff5686" offset="1" />
    </linearGradient>
  </defs>
  <g transform="matrix(1 0 0 1 -100 -180 )">
    <path d="M 3.87931049895338 0.00159354003910721  C 16.672149077908 0.103261319381818  28.9783846528544 5.06640905934175  38.4618493707581 13.9377958406781  C 39.3997207367102 14.6411672881782  40 15.785862411702  40 17.1  C 40 19.284  38.3420289855072 21  36.231884057971 21  C 35.3667276744386 21  34.577581192088 20.7115424250147  33.9397665706415 20.2292670822414  C 33.9078195049321 20.1983849232605  33.8758285797781 20.1675507536625  33.8437939024255 20.136764683747  C 25.8777364221571 12.4811981912609  15.206188240343 7.79995636037072  3.47826072270509 7.78910450156641  C 1.50810743998367 7.64021643658175  0 5.98295701834311  0 3.9  C 0 1.8170430772994  1.50810730148904 0.159783715610024  3.47826086956522 0.00119614034003916  C 3.24674970543445 0.000398715654660009  3.36250512724561 0  3.47826086956522 0  C 3.55391070908347 0  3.629544410984 0.00017008524546327  3.70516149367691 0.000510090437933286  C 3.72610060181555 0.000170441941963873  3.7470858158034 0  3.76811594202899 0  C 3.80532358320671 0  3.84239063736894 0.0005335277237009  3.87931049895338 0.00159354003910721  Z M 3.47826086956522 7.80144344027669  C 3.37922540113622 7.80144344027669  3.28019020692 7.8003411233934  3.47826086956522 7.80144344027669  Z " fill-rule="nonzero" fill="url(#LinearGradient533)" stroke="none" transform="matrix(1 0 0 1 100 180 )" />
  </g>
</svg>