<?xml version="1.0" encoding="utf-8"?>
<svg version="1.1" xmlns:xlink="http://www.w3.org/1999/xlink" width="105px" height="105px" xmlns="http://www.w3.org/2000/svg">
  <defs>
    <linearGradient gradientUnits="userSpaceOnUse" x1="101.318965517241" y1="52.2787356321842" x2="11.2040229885058" y2="32.6465517241385" id="LinearGradient539">
      <stop id="Stop540" stop-color="#6aa3fd" offset="0" />
      <stop id="Stop541" stop-color="#89b7fb" offset="1" />
    </linearGradient>
  </defs>
  <g transform="matrix(1 0 0 1 -301 -180 )">
    <path d="M 6.0560241705625 28.0212927393086  L 6.31888052796774 28.1598334852472  C 6.96396660708393 27.0112774700928  8.19067273943841 26.25  9.625 26.25  C 11.7483333333333 26.25  13.4166666666667 27.9183333333333  13.4166666666667 30.0416666666667  C 13.4166666666667 31.2367796158249  12.8881430770602 32.2877497678177  12.0474445277837 32.9782303674808  C 9.13820528718194 39.0069720716171  7.58333333333333 45.6710542216754  7.58333333333333 52.5  C 7.58333333333333 77.3067900132331  27.6932099867668 97.4166666666667  52.5 97.4166666666667  C 77.3067900132332 97.4166666666667  97.4166666666667 77.3067900132331  97.4166666666667 52.5  C 97.4166666666667 27.6932099867669  77.3067900132332 7.58333333333333  52.5 7.58333331511537  L 52.4999994917602 7.301784937611  C 51.1188249522763 6.74018640089209  50.1666666666667 5.39576629999885  50.1666666666667 3.79166666666667  C 50.1666666666667 2.18756704312961  51.1188249406479 0.843146948860219  52.5 0.281549718191267  L 52.5 0.0011629142194162  C 52.2670418910934 0.000387640219742025  52.3835207842908 0  52.5 0  C 52.8826221470116 0  53.2642882897516 0.00409314085834467  53.6449570083642 0.012238024657042  C 53.7481900551805 0.00412914096233408  53.8526986295803 0  53.9583333333333 0  C 54.1443061957681 0  54.3267886662982 0.012798103650501  54.5049655758602 0.0375790262723778  C 82.5708048581066 1.09139946499418  105 24.1763901234169  105 52.5  C 105 81.4949493661167  81.4949493661167 105  52.5 105  C 23.5050506338833 105  0 81.4949493661167  0 52.5  C 0 43.9696021751215  2.07863157680178 35.5676849372922  6.0560241705625 28.0212927393086  Z M 52.5 7.58473667804665  C 52.4003455598933 7.58473667804665  52.3006913957133 7.58366498107692  52.5 7.58473667804665  Z " fill-rule="nonzero" fill="url(#LinearGradient539)" stroke="none" transform="matrix(1 0 0 1 301 180 )" />
  </g>
</svg>