<?xml version="1.0" encoding="utf-8"?>
<svg version="1.1" xmlns:xlink="http://www.w3.org/1999/xlink" width="81px" height="81px" xmlns="http://www.w3.org/2000/svg">
  <g transform="matrix(1 0 0 1 -313 -192 )">
    <path d="M 353.5 192.5  C 375.9 192.5  393.5 210.1  393.5 232.5  C 393.5 254.9  375.9 272.5  353.5 272.5  C 331.1 272.5  313.5 254.9  313.5 232.5  C 313.5 210.1  331.1 192.5  353.5 192.5  Z " fill-rule="nonzero" fill="#000000" stroke="none" />
    <path d="M 353.5 192.5  C 375.9 192.5  393.5 210.1  393.5 232.5  C 393.5 254.9  375.9 272.5  353.5 272.5  C 331.1 272.5  313.5 254.9  313.5 232.5  C 313.5 210.1  331.1 192.5  353.5 192.5  Z " stroke-width="1" stroke-dasharray="9,4" stroke="#68a0f9" fill="none" stroke-opacity="0.6" stroke-dashoffset="0.5" />
  </g>
</svg>