<?xml version="1.0" encoding="utf-8"?>
<svg version="1.1" xmlns:xlink="http://www.w3.org/1999/xlink" width="81px" height="81px" xmlns="http://www.w3.org/2000/svg">
  <g transform="matrix(1 0 0 1 -438 -192 )">
    <path d="M 478.5 192.5  C 500.9 192.5  518.5 210.1  518.5 232.5  C 518.5 254.9  500.9 272.5  478.5 272.5  C 456.1 272.5  438.5 254.9  438.5 232.5  C 438.5 210.1  456.1 192.5  478.5 192.5  Z " fill-rule="nonzero" fill="#000000" stroke="none" />
    <path d="M 478.5 192.5  C 500.9 192.5  518.5 210.1  518.5 232.5  C 518.5 254.9  500.9 272.5  478.5 272.5  C 456.1 272.5  438.5 254.9  438.5 232.5  C 438.5 210.1  456.1 192.5  478.5 192.5  Z " stroke-width="1" stroke-dasharray="9,4" stroke="#20a17c" fill="none" stroke-opacity="0.6" stroke-dashoffset="0.5" />
  </g>
</svg>