<?xml version="1.0" encoding="utf-8"?>
<svg version="1.1" xmlns:xlink="http://www.w3.org/1999/xlink" width="24px" height="8px" xmlns="http://www.w3.org/2000/svg">
  <g transform="matrix(1 0 0 1 -817 -350 )">
    <path d="M 8.10055060978198 4.00002515483948  C 8.10055060978198 6.06650450506697  9.77576311481687 7.74171701010175  11.8422424650443 7.74171701010175  C 13.9087218152717 7.74171701010175  15.5839343203065 6.06650450506697  15.5839343203065 4.00002515483948  C 15.5839343203065 1.93349549493303  13.9087218152717 0.258282989898248  11.8422424650443 0.258282989898248  C 9.77576311481687 0.258282989898248  8.10055060978198 1.93349549493303  8.10055060978198 3.99997484516052  Z M 7.50352233322235 4  C 7.50352233322235 3.39865666739593  1.93318407930406 2.19597000199769  1.93318407930406 2.19597000199769  C 1.12295306405656 2.19597000199769  0.41400092325182 3.0378506695838  0.41400092325182 4  C 0.41400092325182 4.9621493304162  1.12295306405656 5.80402999800231  1.93318407930406 5.80402999800231  C 1.93318407930406 5.80402999800231  7.50352233322235 4.60134333260407  7.50352233322235 4  Z M 23.7081427019363 4  C 23.7081427088253 3.0378506695838  22.999190560811 2.19597000199769  22.1889595388348 2.19597000199769  C 22.1889595388348 2.19597000199769  16.6186212849165 3.39865666758624  16.6186212919657 4  C 16.618621299015 4.60134333241376  22.1889595388348 5.80402999800231  22.1889595388348 5.80402999800231  C 22.9991905539221 5.80402999800231  23.7081426950473 4.9621493304162  23.7081427019363 4  Z " fill-rule="nonzero" fill="#fa9c2c" stroke="none" transform="matrix(1 0 0 1 817 350 )" />
  </g>
</svg>