<?xml version="1.0" encoding="utf-8"?>
<svg version="1.1" xmlns:xlink="http://www.w3.org/1999/xlink" width="114px" height="77px" xmlns="http://www.w3.org/2000/svg">
  <defs>
    <mask fill="white" id="clip735">
      <path d="M 0 72.875  L 0 4.125  C 0 1.815  2.21294117647059 0  5.02941176470588 0  L 108.970588235294 0  C 111.787058823529 0  114 1.815  114 4.125  L 114 72.875  C 114 75.185  111.787058823529 77  108.970588235294 77  L 5.02941176470588 77  C 2.21294117647059 77  0 75.185  0 72.875  Z " fill-rule="evenodd" />
    </mask>
  </defs>
  <g transform="matrix(1 0 0 1 -1234 -760 )">
    <path d="M 0 72.875  L 0 4.125  C 0 1.815  2.21294117647059 0  5.02941176470588 0  L 108.970588235294 0  C 111.787058823529 0  114 1.815  114 4.125  L 114 72.875  C 114 75.185  111.787058823529 77  108.970588235294 77  L 5.02941176470588 77  C 2.21294117647059 77  0 75.185  0 72.875  Z " fill-rule="nonzero" fill="#000000" stroke="none" transform="matrix(1 0 0 1 1234 760 )" />
    <path d="M 0 72.875  L 0 4.125  C 0 1.815  2.21294117647059 0  5.02941176470588 0  L 108.970588235294 0  C 111.787058823529 0  114 1.815  114 4.125  L 114 72.875  C 114 75.185  111.787058823529 77  108.970588235294 77  L 5.02941176470588 77  C 2.21294117647059 77  0 75.185  0 72.875  Z " stroke-width="2" stroke="#f6ae28" fill="none" transform="matrix(1 0 0 1 1234 760 )" mask="url(#clip735)" />
  </g>
</svg>