<?xml version="1.0" encoding="utf-8"?>
<svg version="1.1" xmlns:xlink="http://www.w3.org/1999/xlink" width="625px" height="158px" xmlns="http://www.w3.org/2000/svg">
  <g transform="matrix(1 0 0 1 -1197 -768 )">
    <path d="M 0 82.6573208722726  L 22.4088397790054 71.5994853040777  L 41.3701657458561 157  L 56.8839779005521 71.5994853040777  L 75.3706461686289 61.3922524718934  L 91.3591160220989 93.7151564404714  L 108.34686524141 60.1588785046729  L 126.333893826567 93.7151564404714  L 140.323804948355 71.5994853040777  L 160.309392265193 127.739265881078  L 178.296420850346 110.727211160775  L 195.284170069662 93.7151564404714  L 230.25894787413 119.233238520927  L 248.245976459282 71.5994853040777  L 262.23588758107 110.5  L 278.224357434541 110.5  L 299.209224117225 71.5994853040777  L 315.197693970695 82.6573208722726  L 332.185443190006 44.38019775159  L 350.172471775163 12.0572937830158  L 368.159500360315 31.6211567113624  L 388.145087677154 23.1151293512107  L 404.133557530629 0.999458214817059  L 418.123468652412 44.38019775159  L 437.10977660341 31.6211567113624  L 453.09824645688 12.0572937830158  L 470.085995676196 31.6211567113624  L 488.073024261348 12.0572937830158  L 507.059332212346 31.6211567113624  L 524.047081431662 12.0572937830158  L 539.036271919291 44.38019775159  L 557.023300504443 31.6211567113624  L 572.012490992072 82.6573208722726  L 591.998078308911 71.5994853040777  L 608.985827528227 60.1588785046729  L 622.97573865001 103.922389272652  L 621.976459284169 103.071786536637  " stroke-width="1" stroke="#f6ae28" fill="none" transform="matrix(1 0 0 1 1197 768 )" />
  </g>
</svg>