<?xml version="1.0" encoding="utf-8"?>
<svg version="1.1" xmlns:xlink="http://www.w3.org/1999/xlink" width="384px" height="178px" xmlns="http://www.w3.org/2000/svg">
  <defs>
    <radialGradient cx="1743.51215521272" cy="461.021390374332" r="173.561323011422" gradientTransform="matrix(0.999481373335939 0.0322022414515689 -0.014168827815727 0.439766887193913 7.43636459238856 202.134449203697 )" gradientUnits="userSpaceOnUse" id="RadialGradient753">
      <stop id="Stop754" stop-color="#80ffff" offset="0" />
      <stop id="Stop755" stop-color="#80ffff" offset="0.36" />
      <stop id="Stop756" stop-color="#04779d" offset="1" />
    </radialGradient>
    <filter x="1472px" y="328px" width="384px" height="178px" filterUnits="userSpaceOnUse" id="filter757">
      <feOffset dx="0" dy="0" in="SourceAlpha" result="shadowOffsetInner" />
      <feGaussianBlur stdDeviation="2.5" in="shadowOffsetInner" result="shadowGaussian" />
      <feComposite in2="shadowGaussian" operator="atop" in="SourceAlpha" result="shadowComposite" />
      <feColorMatrix type="matrix" values="0 0 0 0 0  0 0 0 0 0  0 0 0 0 0  0 0 0 0.349019607843137 0  " in="shadowComposite" />
    </filter>
    <g id="widget758">
      <path d="M 1477.5 484.815047668307  C 1477.5 484.815047668307  1477.5 337  1477.5 337  C 1477.5 335.067003375592  1479.06700337559 333.5  1481 333.5  C 1481 333.5  1847 333.5  1847 333.5  C 1848.93299662441 333.5  1850.5 335.067003375592  1850.5 337  C 1850.5 337  1850.5 484.815047668307  1850.5 484.815047668307  C 1850.5 486.748044292715  1848.93299662441 488.315047668307  1847 488.315047668307  C 1847 488.315047668307  1653.63843063864 488.315047668307  1653.63843063864 488.315047668307  C 1653.63843063864 488.315047668307  1641.98501941411 499.952227784383  1641.98501941411 499.952227784383  C 1641.98501941411 499.952227784383  1629.69400720049 488.315047668307  1629.69400720049 488.315047668307  C 1629.69400720049 488.315047668307  1481 488.315047668307  1481 488.315047668307  C 1479.06700337559 488.315047668307  1477.5 486.748044292715  1477.5 484.815047668307  Z " fill-rule="nonzero" fill="#091322" stroke="none" />
      <path d="M 1477 484.815047668307  C 1477 484.815047668307  1477 337  1477 337  C 1477 334.790861000677  1478.79086100068 333  1481 333  C 1481 333  1847 333  1847 333  C 1849.20913899932 333  1851 334.790861000677  1851 337  C 1851 337  1851 484.815047668307  1851 484.815047668307  C 1851 487.02418666763  1849.20913899932 488.815047668307  1847 488.815047668307  C 1847 488.815047668307  1653.84533333333 488.815047668307  1653.84533333333 488.815047668307  C 1653.84533333333 488.815047668307  1641.9943019943 500.649572649573  1641.9943019943 500.649572649573  C 1641.9943019943 500.649572649573  1629.49485714286 488.815047668307  1629.49485714286 488.815047668307  C 1629.49485714286 488.815047668307  1481 488.815047668307  1481 488.815047668307  C 1478.79086100068 488.815047668307  1477 487.02418666763  1477 484.815047668307  Z M 1478 484.815047668307  C 1478 486.471901917799  1479.34314575051 487.815047668307  1481 487.815047668307  C 1481 487.815047668307  1629.89315725811 487.815047668307  1629.89315725811 487.815047668307  C 1629.89315725811 487.815047668307  1641.97573683392 499.254882919193  1641.97573683392 499.254882919193  C 1641.97573683392 499.254882919193  1653.43152794394 487.815047668307  1653.43152794394 487.815047668307  C 1653.43152794394 487.815047668307  1847 487.815047668307  1847 487.815047668307  C 1848.65685424949 487.815047668307  1850 486.471901917799  1850 484.815047668307  C 1850 484.815047668307  1850 337  1850 337  C 1850 335.343145750508  1848.65685424949 334  1847 334  C 1847 334  1481 334  1481 334  C 1479.34314575051 334  1478 335.343145750508  1478 337  C 1478 337  1478 484.815047668307  1478 484.815047668307  Z " fill-rule="nonzero" fill="url(#RadialGradient753)" stroke="none" />
    </g>
  </defs>
  <g transform="matrix(1 0 0 1 -1472 -328 )">
    <use xlink:href="#widget758" filter="url(#filter757)" />
    <use xlink:href="#widget758" />
  </g>
</svg>