<?xml version="1.0" encoding="utf-8"?>
<svg version="1.1" xmlns:xlink="http://www.w3.org/1999/xlink" width="41px" height="27px" xmlns="http://www.w3.org/2000/svg">
  <defs>
    <linearGradient gradientUnits="userSpaceOnUse" x1="20" y1="0" x2="20" y2="26" id="LinearGradient759">
      <stop id="Stop760" stop-color="#015472" offset="0" />
      <stop id="Stop761" stop-color="#000000" offset="1" />
    </linearGradient>
  </defs>
  <g transform="matrix(1 0 0 1 -1811 -332 )">
    <path d="M 0 0  L 39.5 0  L 39.5 23.1234042553191  C 39.7604259094942 24.2674042553191  38.4993078970718 25.7234042553191  37.50842945874 25.5  L 16.1558884200279 25.5  C 12.1083842054101 25.7234042553191  10.7480522398479 25.2308623719616  9.3998990677653 22.9371476108741  L 0 0  Z " fill-rule="nonzero" fill="url(#LinearGradient759)" stroke="none" transform="matrix(1 0 0 1 1811 332 )" />
    <path d="M 39.5 0  L 39.5 23.1234042553191  C 39.7604259094942 24.2674042553191  38.4993078970718 25.7234042553191  37.50842945874 25.5  L 16.1558884200279 25.5  C 12.1083842054101 25.7234042553191  10.7480522398479 25.2308623719616  9.3998990677653 22.9371476108741  L 0 0  " stroke-width="1" stroke="#008080" fill="none" transform="matrix(1 0 0 1 1811 332 )" />
  </g>
</svg>