<?xml version="1.0" encoding="utf-8"?>
<svg version="1.1" xmlns:xlink="http://www.w3.org/1999/xlink" width="30px" height="28px" xmlns="http://www.w3.org/2000/svg">
  <g transform="matrix(1 0 0 1 -1722 -157 )">
    <path d="M 14.8339726027397 13.4684179104478  L 14.8339726027397 13.4667462686567  C 14.8339726027397 9.23916417910448  11.5216438356164 5.81397014925373  7.43671232876712 5.81397014925373  C 3.35013698630137 5.81397014925373  0.0394520547945191 9.24083582089552  0.0394520547945191 13.4667462686567  C 0.0394520547945191 14.3443582089552  0.184109589041095 15.2186268656716  0.470136986301369 16.0444179104478  C 1.1227397260274 17.9367164179104  3.28931506849315 21.1345671641791  6.96328767123288 25.6413134328358  C 7.07974763664208 25.7858287996524  7.25379911282225 25.8696180187147  7.43753424657535 25.8696180187147  C 7.62126938032845 25.8696180187147  7.79532085650861 25.7858287996524  7.91178082191781 25.6413134328358  C 11.5791780821918 21.1429253731343  13.7391780821918 17.9450746268657  14.3950684931507 16.0594626865672  C 14.6859271378838 15.2276403804232  14.8343792995188 14.3512617147781  14.8339726027397 13.4684179104478  Z M 9.9041095890411 13.4667462686567  C 9.89917808219178 14.8776119402985  8.79780821917808 16.0193432835821  7.43671232876712 16.0193432835821  C 6.07397260273972 16.0193432835821  4.96931506849315 14.8776119402985  4.96931506849315 13.4667462686567  C 4.96931506849315 12.0558805970149  6.07397260273973 10.9174925373134  7.43506849315068 10.9174925373134  C 8.79945205479452 10.9174925373134  9.9041095890411 12.0608955223881  9.9041095890411 13.4667462686567  Z M 20.28 13.5001791044776  L 20.2783561643836 13.5001791044776  C 20.3576897149804 13.5956407296075  20.4743534556917 13.6507084213045  20.5972602739726 13.6507084213045  C 20.7201670922535 13.6507084213045  20.8368308329648 13.5956407296075  20.9161643835616 13.5001791044776  C 23.3835616438356 10.4728358208955  24.8383561643836 8.32143283582089  25.2805479452055 7.05265671641791  C 25.4750410310304 6.49152112559456  25.5739940969378 5.90076208451704  25.5731506849315 5.30579104477612  C 25.5731506849315 2.464  23.3441095890411 0.157134328358205  20.5956164383562 0.157134328358205  C 17.8471232876712 0.157134328358205  15.6180821917808 2.45898507462686  15.6180821917808 5.30579104477612  C 15.6180821917808 5.89588059701492  15.7150684931507 6.48429850746268  15.907397260274 7.03928358208955  C 16.3495890410959 8.31140298507462  17.8043835616438 10.4661492537313  20.28 13.5001791044776  Z M 18.9386301369863 5.30244776119403  C 18.9386301369863 4.3529552238806  19.6783561643836 3.58734328358209  20.5956164383562 3.58734328358209  C 21.5128767123288 3.58734328358209  22.2542465753425 4.35629850746269  22.2542465753425 5.30244776119403  C 22.2542465753425 6.25194029850746  21.5128767123288 7.02089552238806  20.5956164383562 7.02089552238806  C 19.68 7.02089552238806  18.9386301369863 6.25194029850746  18.9386301369863 5.30244776119403  Z M 24.918904109589 26.8448955223881  C 31.7967123287671 24.3140298507463  29.7419178082192 20.0546865671642  27.4504109589041 19.1670447761194  C 25.2164383561644 18.2994626865672  22.4958904109589 18.5217910447761  21.5128767123288 15.456  L 19.841095890411 15.456  C 19.841095890411 15.456  19.001095890411 18.4348656716418  26.6876712328767 20.718328358209  C 30.9649315068493 22.2261492537314  24.4372602739726 28.6653134328358  12.1479452054795 24.1151044776119  L 10.7079452054795 25.870328358209  C 10.7079452054795 25.870328358209  18.041095890411 29.3757611940299  24.918904109589 26.8448955223881  Z " fill-rule="nonzero" fill="#92edf6" stroke="none" transform="matrix(1 0 0 1 1722 157 )" />
  </g>
</svg>