<?xml version="1.0" encoding="utf-8"?>
<svg version="1.1" xmlns:xlink="http://www.w3.org/1999/xlink" width="12px" height="12px" viewBox="420 79.5  12 12" xmlns="http://www.w3.org/2000/svg">
  <path d="M 426 80  C 429.08 80  431.5 82.42  431.5 85.5  C 431.5 88.58  429.08 91  426 91  C 422.92 91  420.5 88.58  420.5 85.5  C 420.5 82.42  422.92 80  426 80  Z " fill-rule="nonzero" fill="#f0f0f0" stroke="none" />
  <path d="M 426 80  C 429.08 80  431.5 82.42  431.5 85.5  C 431.5 88.58  429.08 91  426 91  C 422.92 91  420.5 88.58  420.5 85.5  C 420.5 82.42  422.92 80  426 80  Z " stroke-width="1" stroke="#aaaaaa" fill="none" stroke-opacity="0.8" />
  <path d="M 426 88.5  C 424.32 88.5  423 87.18  423 85.5  C 423 83.82  424.32 82.5  426 82.5  C 427.68 82.5  429 83.82  429 85.5  C 429 87.18  427.68 88.5  426 88.5  " fill-rule="nonzero" fill="#aaaaaa" stroke="none" fill-opacity="0.8" />
</svg>