<?xml version="1.0" encoding="utf-8"?>
<svg version="1.1" xmlns:xlink="http://www.w3.org/1999/xlink" width="102px" height="38px" xmlns="http://www.w3.org/2000/svg">
  <defs>
    <linearGradient gradientUnits="userSpaceOnUse" x1="162" y1="459" x2="162" y2="497" id="LinearGradient807">
      <stop id="Stop808" stop-color="#8f833c" offset="0" />
      <stop id="Stop809" stop-color="#8d7136" offset="0.97" />
    </linearGradient>
  </defs>
  <g transform="matrix(1 0 0 1 -111 -459 )">
    <path d="M 112.5 464  A 3.5 3.5 0 0 1 116 460.5 L 208 460.5  A 3.5 3.5 0 0 1 211.5 464 L 211.5 492  A 3.5 3.5 0 0 1 208 495.5 L 116 495.5  A 3.5 3.5 0 0 1 112.5 492 L 112.5 464  Z " fill-rule="nonzero" fill="#ffffff" stroke="none" />
    <path d="M 112 464  A 4 4 0 0 1 116 460 L 208 460  A 4 4 0 0 1 212 464 L 212 492  A 4 4 0 0 1 208 496 L 116 496  A 4 4 0 0 1 112 492 L 112 464  Z " stroke-width="2" stroke="url(#LinearGradient807)" fill="none" />
  </g>
</svg>