<?xml version="1.0" encoding="utf-8"?>
<svg version="1.1" xmlns:xlink="http://www.w3.org/1999/xlink" width="102px" height="38px" xmlns="http://www.w3.org/2000/svg">
  <g transform="matrix(1 0 0 1 -263 -459 )">
    <path d="M 264.5 464  A 3.5 3.5 0 0 1 268 460.5 L 360 460.5  A 3.5 3.5 0 0 1 363.5 464 L 363.5 492  A 3.5 3.5 0 0 1 360 495.5 L 268 495.5  A 3.5 3.5 0 0 1 264.5 492 L 264.5 464  Z " fill-rule="nonzero" fill="#8d803a" stroke="none" />
    <path d="M 264 464  A 4 4 0 0 1 268 460 L 360 460  A 4 4 0 0 1 364 464 L 364 492  A 4 4 0 0 1 360 496 L 268 496  A 4 4 0 0 1 264 492 L 264 464  Z " stroke-width="2" stroke="#ffffff" fill="none" />
  </g>
</svg>