<?xml version="1.0" encoding="utf-8"?>
<svg version="1.1" xmlns:xlink="http://www.w3.org/1999/xlink" width="12px" height="12px" viewBox="542 79.5  12 12" xmlns="http://www.w3.org/2000/svg">
  <path d="M 548 80  C 551.08 80  553.5 82.42  553.5 85.5  C 553.5 88.58  551.08 91  548 91  C 544.92 91  542.5 88.58  542.5 85.5  C 542.5 82.42  544.92 80  548 80  Z " fill-rule="nonzero" fill="#ffffff" stroke="none" />
  <path d="M 548 80  C 551.08 80  553.5 82.42  553.5 85.5  C 553.5 88.58  551.08 91  548 91  C 544.92 91  542.5 88.58  542.5 85.5  C 542.5 82.42  544.92 80  548 80  Z " stroke-width="1" stroke="#aaaaaa" fill="none" stroke-opacity="0.8" />
  <path d="M 548 88.5  C 546.32 88.5  545 87.18  545 85.5  C 545 83.82  546.32 82.5  548 82.5  C 549.68 82.5  551 83.82  551 85.5  C 551 87.18  549.68 88.5  548 88.5  " fill-rule="nonzero" fill="#aaaaaa" stroke="none" fill-opacity="0.8" />
</svg>