<?xml version="1.0" encoding="utf-8"?>
<svg version="1.1" xmlns:xlink="http://www.w3.org/1999/xlink" width="12px" height="12px" viewBox="268 79.5  12 12" xmlns="http://www.w3.org/2000/svg">
  <path d="M 274 80  C 277.08 80  279.5 82.42  279.5 85.5  C 279.5 88.58  277.08 91  274 91  C 270.92 91  268.5 88.58  268.5 85.5  C 268.5 82.42  270.92 80  274 80  Z " fill-rule="nonzero" fill="#f0f0f0" stroke="none" />
  <path d="M 274 80  C 277.08 80  279.5 82.42  279.5 85.5  C 279.5 88.58  277.08 91  274 91  C 270.92 91  268.5 88.58  268.5 85.5  C 268.5 82.42  270.92 80  274 80  Z " stroke-width="1" stroke="#aaaaaa" fill="none" stroke-opacity="0.8" />
  <path d="M 274 88.5  C 272.32 88.5  271 87.18  271 85.5  C 271 83.82  272.32 82.5  274 82.5  C 275.68 82.5  277 83.82  277 85.5  C 277 87.18  275.68 88.5  274 88.5  " fill-rule="nonzero" fill="#aaaaaa" stroke="none" fill-opacity="0.8" />
</svg>