<?xml version="1.0" encoding="utf-8"?>
<svg version="1.1" xmlns:xlink="http://www.w3.org/1999/xlink" width="110px" height="40px" xmlns="http://www.w3.org/2000/svg">
  <defs>
    <linearGradient gradientUnits="userSpaceOnUse" x1="75" y1="16" x2="75" y2="56" id="LinearGradient242">
      <stop id="Stop243" stop-color="#8f833c" offset="0" />
      <stop id="Stop244" stop-color="#8d7136" offset="0.97" />
    </linearGradient>
  </defs>
  <g transform="matrix(1 0 0 1 -20 -16 )">
    <path d="M 21.5 18  A 0.5 0.5 0 0 1 22 17.5 L 128.5 17.5  L 128.5 54.5  L 22 54.5  A 0.5 0.5 0 0 1 21.5 54 L 21.5 18  Z " fill-rule="nonzero" fill="#ffffff" stroke="none" />
    <path d="M 21 18  A 1 1 0 0 1 22 17 L 129 17  L 129 55  L 22 55  A 1 1 0 0 1 21 54 L 21 18  Z " stroke-width="2" stroke="url(#LinearGradient242)" fill="none" />
  </g>
</svg>