<?xml version="1.0" encoding="utf-8"?>
<svg version="1.1" xmlns:xlink="http://www.w3.org/1999/xlink" width="110px" height="40px" xmlns="http://www.w3.org/2000/svg">
  <defs>
    <linearGradient gradientUnits="userSpaceOnUse" x1="185" y1="16" x2="185" y2="56" id="LinearGradient245">
      <stop id="Stop246" stop-color="#ffffff" stop-opacity="0.00392156862745098" offset="0" />
      <stop id="Stop247" stop-color="#2b6170" offset="0" />
      <stop id="Stop248" stop-color="#275867" offset="0.11" />
      <stop id="Stop249" stop-color="#081721" offset="1" />
    </linearGradient>
  </defs>
  <g transform="matrix(1 0 0 1 -130 -16 )">
    <path d="M 130.5 16.5  L 238 16.5  A 1.5 1.5 0 0 1 239.5 18 L 239.5 54  A 1.5 1.5 0 0 1 238 55.5 L 130.5 55.5  L 130.5 16.5  Z " fill-rule="nonzero" fill="url(#LinearGradient245)" stroke="none" />
    <path d="M 130.5 16.5  L 238 16.5  A 1.5 1.5 0 0 1 239.5 18 L 239.5 54  A 1.5 1.5 0 0 1 238 55.5 L 130.5 55.5  L 130.5 16.5  Z " stroke-width="1" stroke="#008080" fill="none" />
  </g>
</svg>