<?xml version="1.0" encoding="utf-8"?>
<svg version="1.1" xmlns:xlink="http://www.w3.org/1999/xlink" width="110px" height="40px" xmlns="http://www.w3.org/2000/svg">
  <defs>
    <linearGradient gradientUnits="userSpaceOnUse" x1="75" y1="16" x2="75" y2="54.8" id="LinearGradient239">
      <stop id="Stop240" stop-color="#8f833c" offset="0" />
      <stop id="Stop241" stop-color="#8d7136" offset="1" />
    </linearGradient>
  </defs>
  <g transform="matrix(1 0 0 1 -20 -16 )">
    <path d="M 20.5 18  A 1.5 1.5 0 0 1 22 16.5 L 129.5 16.5  L 129.5 55.5  L 22 55.5  A 1.5 1.5 0 0 1 20.5 54 L 20.5 18  Z " fill-rule="nonzero" fill="url(#LinearGradient239)" stroke="none" />
    <path d="M 20.5 18  A 1.5 1.5 0 0 1 22 16.5 L 129.5 16.5  L 129.5 55.5  L 22 55.5  A 1.5 1.5 0 0 1 20.5 54 L 20.5 18  Z " stroke-width="1" stroke="#90dde7" fill="none" />
  </g>
</svg>