<?xml version="1.0" encoding="utf-8"?>
<svg version="1.1" xmlns:xlink="http://www.w3.org/1999/xlink" width="90px" height="40px" xmlns="http://www.w3.org/2000/svg">
  <defs>
    <linearGradient gradientUnits="userSpaceOnUse" x1="243" y1="16" x2="243" y2="56" id="LinearGradient267">
      <stop id="Stop268" stop-color="#ffffff" stop-opacity="0.00392156862745098" offset="0" />
      <stop id="Stop269" stop-color="#2b6170" offset="0" />
      <stop id="Stop270" stop-color="#275867" offset="0.11" />
      <stop id="Stop271" stop-color="#081721" offset="1" />
    </linearGradient>
  </defs>
  <g transform="matrix(1 0 0 1 -198 -16 )">
    <path d="M 198.5 16.5  L 286 16.5  A 1.5 1.5 0 0 1 287.5 18 L 287.5 54  A 1.5 1.5 0 0 1 286 55.5 L 198.5 55.5  L 198.5 16.5  Z " fill-rule="nonzero" fill="url(#LinearGradient267)" stroke="none" />
    <path d="M 198.5 16.5  L 286 16.5  A 1.5 1.5 0 0 1 287.5 18 L 287.5 54  A 1.5 1.5 0 0 1 286 55.5 L 198.5 55.5  L 198.5 16.5  Z " stroke-width="1" stroke="#008080" fill="none" />
  </g>
</svg>