<?xml version="1.0" encoding="utf-8"?>
<svg version="1.1" xmlns:xlink="http://www.w3.org/1999/xlink" width="90px" height="40px" xmlns="http://www.w3.org/2000/svg">
  <defs>
    <linearGradient gradientUnits="userSpaceOnUse" x1="243" y1="16" x2="243" y2="54.8" id="LinearGradient283">
      <stop id="Stop284" stop-color="#8f833c" offset="0" />
      <stop id="Stop285" stop-color="#8d7136" offset="1" />
    </linearGradient>
  </defs>
  <g transform="matrix(1 0 0 1 -198 -16 )">
    <path d="M 198.5 16.5  L 286 16.5  A 1.5 1.5 0 0 1 287.5 18 L 287.5 54  A 1.5 1.5 0 0 1 286 55.5 L 198.5 55.5  L 198.5 16.5  Z " fill-rule="nonzero" fill="url(#LinearGradient283)" stroke="none" />
    <path d="M 198.5 16.5  L 286 16.5  A 1.5 1.5 0 0 1 287.5 18 L 287.5 54  A 1.5 1.5 0 0 1 286 55.5 L 198.5 55.5  L 198.5 16.5  Z " stroke-width="1" stroke="#90dde7" fill="none" />
  </g>
</svg>