<?xml version="1.0" encoding="utf-8"?>
<svg version="1.1" xmlns:xlink="http://www.w3.org/1999/xlink" width="321px" height="76px" xmlns="http://www.w3.org/2000/svg">
  <g transform="matrix(1 0 0 1 -73 -118 )">
    <path d="M 320 17.6984126984127  C 320 17.6984126984127  292.678981711241 22.989417989418  276.327543424318 39.1776548151627  C 259.976105137395 55.3658916409074  254.447201543977 66.9047619047605  232.13345166724 65.6669413703781  C 209.819701790504 64.4291208359957  215.274975397416 56.2216915021257  203.849232942711 53.6584647986817  C 192.423490488007 51.0952380952378  183.953680727874 56.4285714285714  174.213399503723 50.134464664132  C 154.217378743339 37.2131653059836  154.752929669813 0.986735735027042  145.42609262647 0.326701200846681  C 136.099255583128 -0.33333333333368  128.052936311002 8.42857142857178  117.605549618736 28.2287497056739  C 102.631003421051 56.6089267840602  108.255849347846 72.2567458070808  87.9303037438197 74.8498940428541  C 74.0953409898035 76.6149688879033  71.4234482258965 60.6498817092161  59.0239867659222 50.134464664132  C 46.6245253059479 39.619047619048  38.6964433416057 37.7619047619044  29.5071634275788 39.1776548151627  C 20.3178835135518 40.5934048684209  0.295593269457047 57.1903696727105  0.295593269457047 57.1903696727105  L 0 56.0476190476194  " stroke-width="1" stroke="#e43c5f" fill="none" transform="matrix(1 0 0 1 73 118 )" />
  </g>
</svg>