<?xml version="1.0" encoding="utf-8"?>
<svg version="1.1" xmlns:xlink="http://www.w3.org/1999/xlink" width="48px" height="48px" xmlns="http://www.w3.org/2000/svg">
  <defs>
    <radialGradient cx="9.64479050797188" cy="18.965977011494" r="15.457905152474" gradientTransform="matrix(0.945971568582776 0.32424958200905 -0.131117568003471 0.38252475363111 3.00786568305029 8.58370203702423 )" gradientUnits="userSpaceOnUse" id="RadialGradient304">
      <stop id="Stop305" stop-color="#80ffff" offset="0" />
      <stop id="Stop306" stop-color="#80ffff" offset="0.36" />
      <stop id="Stop307" stop-color="#04779d" offset="1" />
    </radialGradient>
    <filter x="9px" y="10px" width="48px" height="48px" filterUnits="userSpaceOnUse" id="filter308">
      <feOffset dx="0" dy="0" in="SourceAlpha" result="shadowOffsetInner" />
      <feGaussianBlur stdDeviation="5" in="shadowOffsetInner" result="shadowGaussian" />
      <feComposite in2="shadowGaussian" operator="atop" in="SourceAlpha" result="shadowComposite" />
      <feColorMatrix type="matrix" values="0 0 0 0 0.925490196078431  0 0 0 0 0.501960784313725  0 0 0 0 0.552941176470588  0 0 0 0.313725490196078 0  " in="shadowComposite" />
    </filter>
    <g id="widget309">
      <path d="M 4.66666666666667 14  C 4.66666666666667 19.1333333333333  8.86666666666667 23.3333333333333  14 23.3333333333333  C 19.1333333333333 23.3333333333333  23.3333333333333 19.1333333333333  23.3333333333333 14  C 23.3333333333333 8.86666666666667  19.1333333333333 4.66666666666667  14 4.66666666666667  C 8.86666666666667 4.66666666666667  4.66666666666667 8.86666666666667  4.66666666666667 14  Z M 28 14  C 28 21.7  21.7 28  14 28  C 6.3 28  0 21.7  0 14  C 0 6.3  6.3 0  14 0  C 21.7 0  28 6.3  28 14  Z " fill-rule="nonzero" fill="url(#RadialGradient304)" stroke="none" transform="matrix(1 0 0 1 19 20 )" />
    </g>
  </defs>
  <g transform="matrix(1 0 0 1 -9 -10 )">
    <use xlink:href="#widget309" filter="url(#filter308)" />
    <use xlink:href="#widget309" />
  </g>
</svg>