<?xml version="1.0" encoding="utf-8"?>
<svg version="1.1" xmlns:xlink="http://www.w3.org/1999/xlink" width="480px" height="347px" xmlns="http://www.w3.org/2000/svg">
  <defs>
    <radialGradient cx="313.543712014959" cy="233.943850267381" r="204.415540586417" gradientTransform="matrix(0.997152952347611 0.0754055012876535 -0.0514208326221512 0.679982682772058 12.922261456794 51.2231625644629 )" gradientUnits="userSpaceOnUse" id="RadialGradient320">
      <stop id="Stop321" stop-color="#80ffff" offset="0" />
      <stop id="Stop322" stop-color="#80ffff" offset="0.36" />
      <stop id="Stop323" stop-color="#04779d" offset="1" />
    </radialGradient>
    <filter x="-20px" y="-20px" width="480px" height="347px" filterUnits="userSpaceOnUse" id="filter324">
      <feOffset dx="0" dy="0" in="SourceAlpha" result="shadowOffsetInner" />
      <feGaussianBlur stdDeviation="10" in="shadowOffsetInner" result="shadowGaussian" />
      <feComposite in2="shadowGaussian" operator="atop" in="SourceAlpha" result="shadowComposite" />
      <feColorMatrix type="matrix" values="0 0 0 0 0.2  0 0 0 0 0.2  0 0 0 0 0.2  0 0 0 0.996078431372549 0  " in="shadowComposite" />
    </filter>
    <g id="widget325">
      <path d="M 0.5 289.5  C 0.5 289.5  0.5 0.5  0.5 0.5  C 0.5 0.5  439.5 0.5  439.5 0.5  C 439.5 0.5  439.5 289.5  439.5 289.5  C 439.5 289.5  383.94629825386 289.5  383.94629825386 289.5  C 383.94629825386 289.5  372.285967927729 305.435784779048  372.285967927729 305.435784779048  C 372.285967927729 305.435784779048  364.512414376975 289.5  364.512414376975 289.5  C 364.512414376975 289.5  0.5 289.5  0.5 289.5  Z " fill-rule="nonzero" fill="#0a1225" stroke="none" fill-opacity="0.698039215686274" />
      <path d="M 0 290  C 0 290  0 0  0 0  C 0 0  440 0  440 0  C 440 0  440 290  440 290  C 440 290  384.200000000001 290  384.200000000001 290  C 384.200000000001 290  372.200000000001 306.400000000001  372.200000000001 306.400000000001  C 372.200000000001 306.400000000001  364.200000000001 290  364.200000000001 290  C 364.200000000001 290  0 290  0 290  Z M 1 289  C 1 289  364.824828753948 289  364.824828753948 289  C 364.824828753948 289  372.371935855457 304.471569558094  372.371935855457 304.471569558094  C 372.371935855457 304.471569558094  383.69259650772 289  383.69259650772 289  C 383.69259650772 289  439 289  439 289  C 439 289  439 1  439 1  C 439 1  1 1  1 1  C 1 1  1 289  1 289  Z " fill-rule="nonzero" fill="url(#RadialGradient320)" stroke="none" />
    </g>
  </defs>
  <g transform="matrix(1 0 0 1 20 20 )">
    <use xlink:href="#widget325" filter="url(#filter324)" />
    <use xlink:href="#widget325" />
  </g>
</svg>