<?xml version="1.0" encoding="utf-8"?>
<svg version="1.1" xmlns:xlink="http://www.w3.org/1999/xlink" width="502px" height="330px" xmlns="http://www.w3.org/2000/svg">
  <defs>
    <radialGradient cx="307.220897615707" cy="220.989304812835" r="214.536443737142" gradientTransform="matrix(0.998302192359443 0.0582471692902705 -0.0357672445294311 0.613017234373168 8.42578049094034 67.624304717491 )" gradientUnits="userSpaceOnUse" id="RadialGradient314">
      <stop id="Stop315" stop-color="#80ffff" offset="0" />
      <stop id="Stop316" stop-color="#80ffff" offset="0.36" />
      <stop id="Stop317" stop-color="#04779d" offset="1" />
    </radialGradient>
    <filter x="-42px" y="-20px" width="502px" height="330px" filterUnits="userSpaceOnUse" id="filter318">
      <feOffset dx="0" dy="0" in="SourceAlpha" result="shadowOffsetInner" />
      <feGaussianBlur stdDeviation="10" in="shadowOffsetInner" result="shadowGaussian" />
      <feComposite in2="shadowGaussian" operator="atop" in="SourceAlpha" result="shadowComposite" />
      <feColorMatrix type="matrix" values="0 0 0 0 0.2  0 0 0 0 0.2  0 0 0 0 0.2  0 0 0 0.996078431372549 0  " in="shadowComposite" />
    </filter>
    <g id="widget319">
      <path d="M 0.500000000000004 289.5  C 0.500000000000004 289.5  0.500000000000004 85.2884887495962  0.500000000000004 85.2884887495962  C 0.500000000000004 85.2884887495962  -19.9518435038558 58.6644279432328  -19.9518435038558 58.6644279432328  C -19.9518435038558 58.6644279432328  0.500000000000004 66.1746163160841  0.500000000000004 66.1746163160841  C 0.500000000000004 66.1746163160841  0.500000000000004 0.5  0.500000000000004 0.5  C 0.500000000000004 0.5  439.5 0.5  439.5 0.5  C 439.5 0.5  439.5 289.5  439.5 289.5  C 439.5 289.5  0.500000000000004 289.5  0.500000000000004 289.5  Z " fill-rule="nonzero" fill="#0a1225" stroke="none" fill-opacity="0.698039215686274" />
      <path d="M 0 290  C 0 290  0 85.4583640222297  0 85.4583640222297  C 0 85.4583640222297  -21.3999999999978 57.5999999999986  -21.3999999999978 57.5999999999986  C -21.3999999999978 57.5999999999986  0 65.4583640222297  0 65.4583640222297  C 0 65.4583640222297  0 0  0 0  C 0 0  440 0  440 0  C 440 0  440 290  440 290  C 440 290  0 290  0 290  Z M 1 289  C 1 289  439 289  439 289  C 439 289  439 1  439 1  C 439 1  1 1  1 1  C 1 1  1 66.8908686099385  1 66.8908686099385  C 1 66.8908686099385  -18.5036870077138 59.728855886467  -18.5036870077138 59.728855886467  C -18.5036870077138 59.728855886467  1 85.1186134769627  1 85.1186134769627  C 1 85.1186134769627  1 289  1 289  Z " fill-rule="nonzero" fill="url(#RadialGradient314)" stroke="none" />
    </g>
  </defs>
  <g transform="matrix(1 0 0 1 42 20 )">
    <use xlink:href="#widget319" filter="url(#filter318)" />
    <use xlink:href="#widget319" />
  </g>
</svg>