<?xml version="1.0" encoding="utf-8"?>
<svg version="1.1" xmlns:xlink="http://www.w3.org/1999/xlink" width="53px" height="53px" xmlns="http://www.w3.org/2000/svg">
  <g transform="matrix(1 0 0 1 -35 -220 )">
    <path d="M 61.5 220.5  C 76.06 220.5  87.5 231.94  87.5 246.5  C 87.5 261.06  76.06 272.5  61.5 272.5  C 46.94 272.5  35.5 261.06  35.5 246.5  C 35.5 231.94  46.94 220.5  61.5 220.5  Z " fill-rule="nonzero" fill="#000000" stroke="none" />
    <path d="M 61.5 220.5  C 76.06 220.5  87.5 231.94  87.5 246.5  C 87.5 261.06  76.06 272.5  61.5 272.5  C 46.94 272.5  35.5 261.06  35.5 246.5  C 35.5 231.94  46.94 220.5  61.5 220.5  Z " stroke-width="1" stroke-dasharray="9,4" stroke="#20a17c" fill="none" stroke-opacity="0.6" stroke-dashoffset="0.5" />
  </g>
</svg>