<?xml version="1.0" encoding="utf-8"?>
<svg version="1.1" xmlns:xlink="http://www.w3.org/1999/xlink" width="70px" height="70px" xmlns="http://www.w3.org/2000/svg">
  <defs>
    <linearGradient gradientUnits="userSpaceOnUse" x1="67.5459770114942" y1="34.8524904214562" x2="7.46934865900386" y2="21.7643678160924" id="LinearGradient385">
      <stop id="Stop386" stop-color="#6aa3fd" offset="0" />
      <stop id="Stop387" stop-color="#89b7fb" offset="1" />
    </linearGradient>
  </defs>
  <g transform="matrix(1 0 0 1 -24 -81 )">
    <path d="M 4.03734944704167 18.6808618262057  L 4.21258701864516 18.7732223234981  C 4.64264440472262 18.0075183133952  5.46044849295894 17.5  6.41666666666667 17.5  C 7.83222222222222 17.5  8.94444444444444 18.6122222222222  8.94444444444444 20.0277777777778  C 8.94444444444444 20.8245197438833  8.59209538470681 21.5251665118785  8.03162968518911 21.9854869116539  C 6.09213685812129 26.0046480477448  5.05555555555556 30.447369481117  5.05555555555556 35  C 5.05555555555556 51.5378600088221  18.4621399911779 64.9444444444444  35 64.9444444444444  C 51.5378600088221 64.9444444444444  64.9444444444444 51.5378600088221  64.9444444444444 35  C 64.9444444444444 18.4621399911779  51.5378600088221 5.05555555555556  35 5.05555554341025  L 34.9999996611734 4.867856625074  C 34.0792166348509 4.49345760059473  33.4444444444444 3.59717753333257  33.4444444444444 2.52777777777778  C 33.4444444444444 1.45837802875308  34.0792166270986 0.562097965906812  35 0.187699812127511  L 35 0.000775276146277469  C 34.8446945940623 0.00025842681316135  34.9223471895272 0  35 0  C 35.2550814313411 0  35.5095255265011 0.00272876057222978  35.7633046722428 0.00815868310469467  C 35.8321267034537 0.00275276064155605  35.9017990863868 0  35.9722222222222 0  C 36.0962041305121 0  36.2178591108655 0.00853206910033401  36.3366437172402 0.0250526841815852  C 55.0472032387378 0.727599643329452  70 16.1175934156113  70 35  C 70 54.3299662440778  54.3299662440778 70  35 70  C 15.6700337559222 70  0 54.3299662440778  0 35  C 0 29.3130681167477  1.38575438453452 23.7117899581948  4.03734944704167 18.6808618262057  Z M 35 5.05649111869777  C 34.9335637065955 5.05649111869777  34.8671275971422 5.05577665405128  35 5.05649111869777  Z " fill-rule="nonzero" fill="url(#LinearGradient385)" stroke="none" transform="matrix(1 0 0 1 24 81 )" />
  </g>
</svg>