<?xml version="1.0" encoding="utf-8"?>
<svg version="1.1" xmlns:xlink="http://www.w3.org/1999/xlink" width="25px" height="12px" xmlns="http://www.w3.org/2000/svg">
  <defs>
    <linearGradient gradientUnits="userSpaceOnUse" x1="6.68879632040269" y1="1.50282292557771" x2="23.177557927623" y2="10.0434559452524" id="LinearGradient382">
      <stop id="Stop383" stop-color="#b52c35" offset="0" />
      <stop id="Stop384" stop-color="#ff5686" offset="1" />
    </linearGradient>
  </defs>
  <g transform="matrix(1 0 0 1 -58 -330 )">
    <path d="M 2.42456906184586 0.000910594308061263  C 10.4200931736925 0.0590064682181816  18.111490408034 2.89509089105243  24.0386558567238 7.96445476610175  C 24.6248254604438 8.36638130753038  25 9.02049280668688  25 9.77142857142857  C 25 11.0194285714286  23.963768115942 12  22.6449275362319 12  C 22.1042047965241 12  21.610988245055 11.8351671000084  21.2123541066509 11.5595811898522  C 21.1923871905826 11.5419342418631  21.1723928623613 11.5243147163786  21.1523711890159 11.5067226764269  C 16.1735852638482 7.13211325214908  9.50386765021435 4.45711792021184  2.17391295169068 4.45091685803795  C 0.942567149989791 4.365837963761  0 3.41883258191035  0 2.22857142857143  C 0 1.03831032988537  0.942567063430651 0.0913049803485852  2.17391304347826 0.000683508765736665  C 2.02921856589653 0.000227837516948577  2.10156570452851 0  2.17391304347826 0  C 2.22119419317717 0  2.268465256865 9.7191568836154E-05  2.31572593354807 0.000291480250247592  C 2.32881287613472 9.73953954079271E-05  2.34192863487713 0  2.35507246376812 0  C 2.3783272395042 0  2.40149414835559 0.000304872984971943  2.42456906184586 0.000910594308061263  Z M 2.17391304347826 4.45796768015811  C 2.11201587571014 4.45796768015811  2.050118879325 4.45733778479623  2.17391304347826 4.45796768015811  Z " fill-rule="nonzero" fill="url(#LinearGradient382)" stroke="none" transform="matrix(1 0 0 1 58 330 )" />
  </g>
</svg>