<?xml version="1.0" encoding="utf-8"?>
<svg version="1.1" xmlns:xlink="http://www.w3.org/1999/xlink" width="49px" height="49px" xmlns="http://www.w3.org/2000/svg">
  <g transform="matrix(1 0 0 1 -35 -92 )">
    <path d="M 59.5 92.5  C 72.94 92.5  83.5 103.06  83.5 116.5  C 83.5 129.94  72.94 140.5  59.5 140.5  C 46.06 140.5  35.5 129.94  35.5 116.5  C 35.5 103.06  46.06 92.5  59.5 92.5  Z " fill-rule="nonzero" fill="#000000" stroke="none" />
    <path d="M 59.5 92.5  C 72.94 92.5  83.5 103.06  83.5 116.5  C 83.5 129.94  72.94 140.5  59.5 140.5  C 46.06 140.5  35.5 129.94  35.5 116.5  C 35.5 103.06  46.06 92.5  59.5 92.5  Z " stroke-width="1" stroke-dasharray="9,4" stroke="#68a0f9" fill="none" stroke-opacity="0.6" stroke-dashoffset="0.5" />
  </g>
</svg>