<?xml version="1.0" encoding="utf-8"?>
<svg version="1.1" xmlns:xlink="http://www.w3.org/1999/xlink" width="60px" height="23px" xmlns="http://www.w3.org/2000/svg">
  <defs>
    <linearGradient gradientUnits="userSpaceOnUse" x1="118" y1="93" x2="118" y2="116" id="LinearGradient426">
      <stop id="Stop427" stop-color="#ffffff" stop-opacity="0.00392156862745098" offset="0" />
      <stop id="Stop428" stop-color="#2b6170" offset="0" />
      <stop id="Stop429" stop-color="#275867" offset="0.11" />
      <stop id="Stop430" stop-color="#081721" offset="1" />
    </linearGradient>
  </defs>
  <g transform="matrix(1 0 0 1 -88 -93 )">
    <path d="M 88.5 98  A 4.5 4.5 0 0 1 93 93.5 L 143 93.5  A 4.5 4.5 0 0 1 147.5 98 L 147.5 111  A 4.5 4.5 0 0 1 143 115.5 L 93 115.5  A 4.5 4.5 0 0 1 88.5 111 L 88.5 98  Z " fill-rule="nonzero" fill="url(#LinearGradient426)" stroke="none" />
    <path d="M 88.5 98  A 4.5 4.5 0 0 1 93 93.5 L 143 93.5  A 4.5 4.5 0 0 1 147.5 98 L 147.5 111  A 4.5 4.5 0 0 1 143 115.5 L 93 115.5  A 4.5 4.5 0 0 1 88.5 111 L 88.5 98  Z " stroke-width="1" stroke="#008080" fill="none" />
  </g>
</svg>