<?xml version="1.0" encoding="utf-8"?>
<svg version="1.1" xmlns:xlink="http://www.w3.org/1999/xlink" width="60px" height="23px" xmlns="http://www.w3.org/2000/svg">
  <defs>
    <linearGradient gradientUnits="userSpaceOnUse" x1="48" y1="93" x2="48" y2="115.31" id="LinearGradient420">
      <stop id="Stop421" stop-color="#8f833c" offset="0" />
      <stop id="Stop422" stop-color="#8d7136" offset="1" />
    </linearGradient>
  </defs>
  <g transform="matrix(1 0 0 1 -18 -93 )">
    <path d="M 18.5 98  A 4.5 4.5 0 0 1 23 93.5 L 73 93.5  A 4.5 4.5 0 0 1 77.5 98 L 77.5 111  A 4.5 4.5 0 0 1 73 115.5 L 23 115.5  A 4.5 4.5 0 0 1 18.5 111 L 18.5 98  Z " fill-rule="nonzero" fill="url(#LinearGradient420)" stroke="none" />
    <path d="M 18.5 98  A 4.5 4.5 0 0 1 23 93.5 L 73 93.5  A 4.5 4.5 0 0 1 77.5 98 L 77.5 111  A 4.5 4.5 0 0 1 73 115.5 L 23 115.5  A 4.5 4.5 0 0 1 18.5 111 L 18.5 98  Z " stroke-width="1" stroke="#90dde7" fill="none" />
  </g>
</svg>