<?xml version="1.0" encoding="utf-8"?>
<svg version="1.1" xmlns:xlink="http://www.w3.org/1999/xlink" width="346px" height="55px" xmlns="http://www.w3.org/2000/svg">
  <defs>
    <radialGradient cx="170.794117647061" cy="55" r="192.301478017838" gradientTransform="matrix(0.99689115138988 -0.0787910672637386 0.0431620899401887 0.546101316191597 -1.84294189144667 38.4214784212426 )" gradientUnits="userSpaceOnUse" id="RadialGradient411">
      <stop id="Stop412" stop-color="#aefcfc" offset="0" />
      <stop id="Stop413" stop-color="#027db4" offset="0.54" />
      <stop id="Stop414" stop-color="#027db4" stop-opacity="0.00392156862745098" offset="1" />
    </radialGradient>
    <mask fill="white" id="clip415">
      <path d="M 29.207792207791 54  L 0.612750885478136 28.1377551020395  L 29.207792207791 0.246598639458142  L 321.966548602911 0  L 345.795749704839 28.1377551020395  L 321.966548602911 54  L 29.207792207791 54  Z " fill-rule="evenodd" />
    </mask>
  </defs>
  <g transform="matrix(1 0 0 1 -42 -65 )">
    <path d="M 29.207792207791 54  L 0.612750885478136 28.1377551020395  L 29.207792207791 0.246598639458142  L 321.966548602911 0  L 345.795749704839 28.1377551020395  L 321.966548602911 54  L 29.207792207791 54  Z " fill-rule="nonzero" fill="#ffffff" stroke="none" fill-opacity="0.00784313725490196" transform="matrix(1 0 0 1 42 65 )" />
    <path d="M 29.207792207791 54  L 0.612750885478136 28.1377551020395  L 29.207792207791 0.246598639458142  L 321.966548602911 0  L 345.795749704839 28.1377551020395  L 321.966548602911 54  L 29.207792207791 54  Z " stroke-width="2" stroke="url(#RadialGradient411)" fill="none" transform="matrix(1 0 0 1 42 65 )" mask="url(#clip415)" />
  </g>
</svg>