<?xml version="1.0" encoding="utf-8"?>
<svg version="1.1" xmlns:xlink="http://www.w3.org/1999/xlink" width="60px" height="23px" xmlns="http://www.w3.org/2000/svg">
  <g transform="matrix(1 0 0 1 -88 -93 )">
    <path d="M 89.5 98  A 3.5 3.5 0 0 1 93 94.5 L 143 94.5  A 3.5 3.5 0 0 1 146.5 98 L 146.5 111  A 3.5 3.5 0 0 1 143 114.5 L 93 114.5  A 3.5 3.5 0 0 1 89.5 111 L 89.5 98  Z " fill-rule="nonzero" fill="#8d803a" stroke="none" />
    <path d="M 89 98  A 4 4 0 0 1 93 94 L 143 94  A 4 4 0 0 1 147 98 L 147 111  A 4 4 0 0 1 143 115 L 93 115  A 4 4 0 0 1 89 111 L 89 98  Z " stroke-width="2" stroke="#ffffff" fill="none" />
  </g>
</svg>