<?xml version="1.0" encoding="utf-8"?>
<svg version="1.1" xmlns:xlink="http://www.w3.org/1999/xlink" width="60px" height="23px" xmlns="http://www.w3.org/2000/svg">
  <defs>
    <linearGradient gradientUnits="userSpaceOnUse" x1="48" y1="93" x2="48" y2="116" id="LinearGradient423">
      <stop id="Stop424" stop-color="#8f833c" offset="0" />
      <stop id="Stop425" stop-color="#8d7136" offset="0.97" />
    </linearGradient>
  </defs>
  <g transform="matrix(1 0 0 1 -18 -93 )">
    <path d="M 19.5 98  A 3.5 3.5 0 0 1 23 94.5 L 73 94.5  A 3.5 3.5 0 0 1 76.5 98 L 76.5 111  A 3.5 3.5 0 0 1 73 114.5 L 23 114.5  A 3.5 3.5 0 0 1 19.5 111 L 19.5 98  Z " fill-rule="nonzero" fill="#ffffff" stroke="none" />
    <path d="M 19 98  A 4 4 0 0 1 23 94 L 73 94  A 4 4 0 0 1 77 98 L 77 111  A 4 4 0 0 1 73 115 L 23 115  A 4 4 0 0 1 19 111 L 19 98  Z " stroke-width="2" stroke="url(#LinearGradient423)" fill="none" />
  </g>
</svg>