<?xml version="1.0" encoding="utf-8"?>
<svg version="1.1" xmlns:xlink="http://www.w3.org/1999/xlink" width="24px" height="24px" xmlns="http://www.w3.org/2000/svg">
  <g transform="matrix(1 0 0 1 -21 -78 )">
    <path d="M 12.0363025210084 0.024406779661015  C 18.5947643697479 0.024406779661015  23.9112605042017 5.38608813559322  23.9112605042017 12  C 23.9112605042017 18.6140420338983  18.5947643697479 23.975593220339  12.0363025210084 23.975593220339  C 5.47796974789916 23.975593220339  0.161344537815125 18.6140420338983  0.161344537815125 12  C 0.161344537815125 5.38608813559322  5.47796974789916 0.024406779661015  12.0363025210084 0.024406779661015  Z M 18.1484208403361 12  C 18.1484208403361 8.59580745762712  15.4118884033613 5.83608406779661  12.0363025210084 5.83608406779661  C 8.66084571428571 5.83608406779661  5.92418420168067 8.59580745762712  5.92418420168067 12  C 5.92418420168067 15.4041925423729  8.66071663865546 18.1639159322034  12.0363025210084 18.1639159322034  C 15.4118884033613 18.1639159322034  18.1484208403361 15.4041925423729  18.1484208403361 12  Z " fill-rule="nonzero" fill="#fff000" stroke="none" fill-opacity="0.494117647058824" transform="matrix(1 0 0 1 21 78 )" />
  </g>
</svg>