<?xml version="1.0" encoding="utf-8"?>
<svg version="1.1" xmlns:xlink="http://www.w3.org/1999/xlink" width="397px" height="87px" xmlns="http://www.w3.org/2000/svg">
  <g transform="matrix(1 0 0 1 -67 -234 )">
    <path d="M 396 20.2941798941799  C 396 20.2941798941799  362.19023986766 26.3611992945326  341.955334987593 44.9237108547199  C 321.720430107526 63.4862224149071  314.878411910671 76.7174603174587  287.26514643821 75.2980927713669  C 259.651880965748 73.8787252252751  266.402782054302 64.4675395891041  252.263425766605 61.528372969155  C 238.124069478908 58.589206349206  227.642679900744 64.7047619047619  215.589081885858 57.487519481538  C 190.844006194882 42.6710962175279  191.506750466393 1.13145697616434  179.964789625257 0.374617376970861  C 168.422828784121 -0.382222222222619  158.465508684864 9.66476190476231  145.536867653186 32.3689663291728  C 127.005866733551 64.9115693790557  133.966613567959 82.854401858786  108.813750882977 85.8278785024727  C 91.6929844748818 87.8518309914624  88.3865171795469 69.5451976932344  73.0421836228287 57.487519481538  C 57.6978500661106 45.4298412698417  47.8868486352371 43.3003174603171  36.5151147416287 44.9237108547199  C 25.1433808480203 46.5471042491227  0.365796670953096 65.5782905580413  0.365796670953096 65.5782905580413  L 0 64.2679365079369  " stroke-width="1" stroke="#e43c5f" fill="none" transform="matrix(1 0 0 1 67 234 )" />
  </g>
</svg>