<?xml version="1.0" encoding="utf-8"?>
<svg version="1.1" xmlns:xlink="http://www.w3.org/1999/xlink" width="55px" height="47px" xmlns="http://www.w3.org/2000/svg">
  <g transform="matrix(1 0 0 1 -25 -366 )">
    <path d="M 26 369  A 2 2 0 0 1 28 367 L 77 367  A 2 2 0 0 1 79 369 L 79 410  A 2 2 0 0 1 77 412 L 28 412  A 2 2 0 0 1 26 410 L 26 369  Z " fill-rule="nonzero" fill="#ffffff" stroke="none" />
    <path d="M 25.5 369  A 2.5 2.5 0 0 1 28 366.5 L 77 366.5  A 2.5 2.5 0 0 1 79.5 369 L 79.5 410  A 2.5 2.5 0 0 1 77 412.5 L 28 412.5  A 2.5 2.5 0 0 1 25.5 410 L 25.5 369  Z " stroke-width="1" stroke="#02a7f0" fill="none" stroke-opacity="0.996078431372549" />
  </g>
</svg>