<?xml version="1.0" encoding="utf-8"?>
<svg version="1.1" xmlns:xlink="http://www.w3.org/1999/xlink" width="32px" height="20px" xmlns="http://www.w3.org/2000/svg">
  <g transform="matrix(1 0 0 1 -270 -462 )">
    <path d="M 271 464  A 1 1 0 0 1 272 463 L 300 463  A 1 1 0 0 1 301 464 L 301 480  A 1 1 0 0 1 300 481 L 272 481  A 1 1 0 0 1 271 480 L 271 464  Z " fill-rule="nonzero" fill="#ffffff" stroke="none" />
    <path d="M 270.5 464  A 1.5 1.5 0 0 1 272 462.5 L 300 462.5  A 1.5 1.5 0 0 1 301.5 464 L 301.5 480  A 1.5 1.5 0 0 1 300 481.5 L 272 481.5  A 1.5 1.5 0 0 1 270.5 480 L 270.5 464  Z " stroke-width="1" stroke="#ff0303" fill="none" stroke-opacity="0.996078431372549" />
  </g>
</svg>